<?xml version="1.0" encoding="utf-8"?>
<!-- Generator: Adobe Illustrator 24.3.0, SVG Export Plug-In . SVG Version: 6.00 Build 0)  -->
<svg version="1.1" id="Layer_1" xmlns="http://www.w3.org/2000/svg" xmlns:xlink="http://www.w3.org/1999/xlink" x="0px" y="0px"
	 viewBox="0 0 2000 2000" style="enable-background:new 0 0 2000 2000;" xml:space="preserve">
<style type="text/css">
	.st0{fill:#F4EBE0;}
	.st1{fill:#7F4F4C;}
	.st2{display:none;}
	.st3{display:inline;}
</style>
<rect class="st0" width="2000" height="2000"/>
<g>
	<g>
		<g>
			<g>
				<g>
					<path class="st1" d="M956.86,668.09c0.72-0.18,1.94,1,2.21-0.63c0.04-0.23,0.21-0.35,0.43-0.32c0.31,0.04,0.41,0.29,0.39,0.56
						c-0.07,0.76,0.15,1.04,1,0.98c0.91-0.07,0.8-0.75,0.72-1.16c-0.15-0.76,0.24-0.75,0.74-0.75c0.5,0,1.53-0.68,1.72,0
						c0.28,1-1.79,1-1.93,1.81c-0.32,1.83-1.5,1.65-2.75,1.4c-0.82-0.17-2.17-0.79-2.43,0.09c-0.21,0.7,0.87,0.05,1.29,0.35
						c2.16,1.56,4.49,0.74,6.82,0.5c2.74-0.29,5.25-1.79,8.1-1.45c0.76,0.09,1.47-0.14,2.22-0.35c1.29-0.35,2.66-0.75,3.95-0.76
						c1.85-0.01,3.66-0.24,5.49-0.34c2.23-0.12,4.38-0.57,6.63,0.35c1.58,0.64,3.27,1.57,5.13,1.04c2.11-0.6,4.09-1.45,6.44-1.31
						c1.96,0.11,3.98,0.1,5.96,0.12c2.93,0.03,5.86,0.69,8.77,0.6c3.21-0.1,6.32,0.55,9.44,0.95c2.71,0.35,5.39,0.92,8.15,0.95
						c0.8,0.01,1.67,0.1,2.29,0.64c0.67,0.57,1.35,0.65,2.12,0.44c0.29-0.08,0.55-0.17,0.88-0.08c1.81,0.49,3.61,1.16,5.46,1.37
						c2.35,0.27,4.56,1.08,6.84,1.57c1.39,0.3,3.01,0.18,4.35,1.16c0.8,0.59,2.15-0.12,3.06,0.83c0.13,0.14,1.2-0.28,1.11-1.07
						c-0.05-0.47-2.84-1.81-3.35-1.56c-2.65,1.27-4.47-1.35-6.83-1.39c-0.09,0-0.18-0.24-0.27-0.36c-0.32-0.44-0.79-0.54-1.31-0.66
						c-2.33-0.57-4.65-1.18-6.96-1.84c-0.67-0.19-1.23-0.64-2-0.58c-2.68,0.24-5.22-1.03-7.92-0.73c-0.21,0.02-0.58-0.29-0.68-0.53
						c-0.34-0.8-1.06-0.97-1.74-1.01c-2.35-0.14-4.67-0.91-7.07-0.23c-0.66,0.19-1.62,0.44-2.1-0.38c-1.12-1.95-3.29-3.2-4.84-1.99
						c0,0,0,0,0,0c-0.34-0.5-1.34-0.41-1.82-0.04c-0.45-1.03-2.22,0.27-2.87-0.09c-1.9-1.04-3.82-0.41-5.72-0.6
						c-0.53-0.05-1.03-0.85-1.51-0.42c-0.82,0.72-1.71-0.19-2.42,0.21c0,0,0,0,0,0c-0.5-1.77-4.21-1.83-4.91-0.33
						c-0.18-0.08-0.4-0.02-0.59,0.03c-0.41-1.58-3.86-1.66-4.87-0.29c-2.67-1.94-6.49,0.83-9.74,1.16
						c-0.69,0.07-1.37,0.51-2.07,0.22c-1.61-0.66-3.69-1.86-5-0.72c-0.46-0.59-1.55-0.2-2.23,0.01c-0.78,0.24-2.68-0.32-2.33,0.84
						c-1.99-0.66-4.19-0.21-6.29-0.3c-0.35-0.01-0.74-0.02-1.05,0.1c-1.62,0.61-3.14,1.45-5.02,1.2c-0.75-0.1-1.62,0.61-1.87,1.39
						C955.91,667.12,956.4,668.21,956.86,668.09z"/>
					<path class="st1" d="M1240.58,902.18c-0.31-3.38-2.09-6.2-4.69-8.26c-1.32-1.05-2.59-2.35-4.29-2.93
						c-1.4-0.48-3.16-2.57-4.22-1.32c0,0,0,0,0,0c0,0,0,0,0,0c-0.18-0.33-0.57-0.74-0.93-0.64c0,0,0,0,0,0
						c-0.51-1.63-2.41-2.3-3.38-3.65c0,0,0,0,0,0c0.59-0.18,0.66-1.99-0.12-1.85c0.06-0.27,0.26-0.65,0.05-0.83c0,0,0,0,0,0
						c1.78-2.02-0.57-5.65-2.33-5c-1.88,0.7-0.98,3.75-0.01,5.23c-0.3-0.14-0.29,0.76,0.01,0.61l0,0c0,0,0,0,0,0
						c0.06,1.03-0.34,1.91-1.17,2.3c-1.66,0.79-2.44,2.43-3.04,3.79c-1.28,2.92-2.91,5.76-3.37,9.01c-0.27,1.89-1.16,3.66-1.06,5.64
						c0.03,0.59,0.59,1.15,0.15,1.75c-1.41,1.95-1.98,5.49-0.04,5.87h0c-0.05,0.33-0.03,0.57,0.04,0.99c0,0,0,0,0,0l0,0
						c-0.91-0.02-0.1,1.46-0.76,2.04c-1.36,1.2-1.67,2.78-1.51,4.54c0.11,1.25,0.17,2.55-0.02,3.78c-0.16,1.01,0.45,2.28-0.41,2.99
						c-1.58,1.32-1.67,3.24-2.43,4.89c-0.99,2.15-0.57,4.67-1.85,6.72c-0.53,0.85,0.78,1.63,0.19,2.2c-0.53,0.51-1.64,0.09-2.2,1.02
						c-0.46,0.77-1.23,1.34-1.74,2.09v0c-0.58-0.73-1.65,0.72-1.56,1.74c0,0,0,0,0,0c-0.93,0.28-1.49,1.2-2.18,1.87
						c-1.9,1.85-3.61,3.92-4.52,6.37c0,0,0,0,0,0c0,0,0,0,0,0c-0.46-0.14-0.44,0.49-0.36,1.11c-0.16,0.6-0.22,1.2-0.02,1.62
						c-0.13,0.29-0.33,0.58-0.54,0.97c-1.79-0.73-2.8,2.57-3.12,4.66c-0.12,0.77-0.59,1.53-1.44,2c-0.96,0.52-1.63,1.35-1.36,2.59
						c0.14,0.61-0.35,0.88-0.73,0.99c-1.54,0.44-2.87,1.87-1.7,2.91c-1.1-0.16-1.27,1.75-2.13,2.49c-2.06,1.78-3.85,3.81-5.26,6.19
						c-0.66,1.12-1.09,2.35-1.79,3.43c-0.63,0.96-1.36,1.77-1.27,3.11c0.09,1.27-1.05,2.38-0.8,3.77c0.03,0.16-0.27,0.41-0.46,0.56
						c-1.83,1.4-3.05,3.37-4.67,4.94c-1,0.96-1.64,2.08-2.08,3.31c-0.6,1.64-0.82,3.41-1.73,4.95c-0.2,0.33-0.31,0.7-0.12,1
						c0.63,1,0.31,1.95-0.08,2.9c-0.6,1.45-0.68,2.95-0.61,4.49c0.09,1.68-0.01,3.31-0.98,4.84c-0.43,0.68-0.58,1.61-0.62,2.44
						c-0.07,1.59,0.09,3.19-1.01,4.55c-0.31,0.38-0.31,0.88,0.21,1.01c0,0,0,0,0,0c-0.45,0.69-0.38,1.05-0.62,1.63c0,0,0,0,0,0
						c-0.16-0.2-0.63-0.11-0.59,0.24c0,0,0,0,0,0c-0.04-0.01-0.09,0.05-0.09,0.06c0.02,0.07,0.02,0.19,0.09,0.19v0
						c-0.03,0.17,0.06,0.34,0.05,0.52c0,0,0,0,0,0c0,0,0,0,0,0c-0.09-0.14-0.31,0.08-0.2,0.17c0,0,0,0,0,0
						c-0.17,0.04-0.34,0.1-0.48,0.19c0,0,0,0,0,0c0,0,0,0,0,0c-0.01-0.16-0.34,0-0.22,0.09c0,0,0.1,0.01,0.13,0c0,0,0,0,0,0
						c0,0,0,0,0,0c-0.03,0.01-0.13,0-0.13,0c-2.18,1.11-5.57,1.84-5.9,4.24c0,0,0,0,0,0c-0.91,0.08-1.16,0.48-1.83,0.67c0,0,0,0,0,0
						c-0.23-0.94-1.77-0.84-2.8-0.63c-1.71,0.35-3.38-0.04-5.08-0.21c-2.14-0.22-4.67-1-6.44,0.27c0,0,0,0,0,0
						c-0.09-0.11-0.41-0.01-0.42,0.14c0,0,0,0,0,0c0,0,0,0,0,0c-0.19-0.02-0.54-0.06-0.6,0.08c0-0.03-0.01-0.06-0.02-0.06
						c-0.03,0-0.02,0.09,0,0.11c0,0,0,0,0,0c0,0,0.03,0,0.03,0c0.04,0.1-0.17,0.11-0.21,0.21c0,0,0,0,0,0
						c-0.02-0.02-0.09-0.04-0.11-0.02c-0.02,0.02-0.02,0.11-0.02,0.11c-0.07,0-0.12,0.04-0.16,0.1c0,0,0,0,0,0
						c-0.09-0.21-0.69-0.05-0.57,0.2c-0.16,0.07-0.24,0.27-0.3,0.43c0,0,0,0,0,0v0c-0.23-0.12-0.68,0.24-0.61,0.49
						c-0.3-0.02-0.67-0.13-0.91,0.06h0c-0.19-0.38-0.84,0.04-0.71,0.42c-0.26-0.1-0.58-0.19-0.83-0.07
						c-0.09-0.29-0.73-0.01-0.57,0.25c0,0,0,0,0,0c0,0,0,0,0,0c0,0-0.04,0.02-0.06,0.03c-0.03-0.19-0.49,0.09-0.34,0.2c0,0,0,0,0,0
						c0,0,0,0,0,0c-0.37-0.76-2.65-0.24-2.45,0.61c0,0,0,0,0,0c-0.19,0.02-0.37,0.08-0.54,0.17c-0.07-0.24-0.61-0.27-0.75-0.06
						c0,0,0,0,0,0c0,0-0.04-0.04-0.06-0.05c1.11-1.26-1.57-1.18-2.07-0.63v0c-0.13-0.11-0.34-0.03-0.51,0.02
						c-0.03-0.2-0.53,0.1-0.37,0.22c0,0,0,0,0,0c-0.11,0.09-0.21,0.19-0.28,0.32c0,0,0,0,0,0c-0.35-0.3-0.93,0.27-1.24,0.6v0
						c-0.05-0.15-0.24-0.23-0.4-0.27c0.28-0.98-1.56,0.06-2.35-0.04c0.08-0.15-0.39-0.18-0.33-0.02h0c-0.1,0-0.2,0.04-0.23,0.13
						c-1.11-1.09-5.03-1.1-4.62,0.5c0,0,0,0,0,0c-1.87,0.31-5.02,0.39-5.12,2.37c-0.6,0.2-0.7,0.23-0.98,0.66c0,0,0,0,0,0
						c0.05-0.13-0.18-0.35-0.31-0.3c-0.12-0.5-0.53-0.93-1.14-0.47c0,0,0,0,0,0c-0.05-0.18-0.46,0.15-0.3,0.24l-0.03,0.03
						c-0.45-0.72-2.64-0.72-2.51,0.21c-0.31,0.02-0.74,0.09-0.85,0.37c-0.97-0.19-2.12,0.92-2.96,1.47
						c-0.17-0.04-0.37-0.07-0.58-0.07c-0.48-0.57-0.79-0.84-0.52,0.03h0c-0.09,0.01-0.22-0.01-0.25,0.07c0,0,0,0,0,0
						c-1.03-0.54-2.19,0.9-2.78,1.84c-0.14-0.13-0.39,0.04-0.57,0.11l0,0c0,0,0,0,0,0c-0.06-0.1-0.35,0.08-0.29,0.18c0,0,0,0,0,0
						c-1.64,1.01-3.99,1.36-4.91,3.06c-0.36-0.25-1.05,0.32-1.02,0.76c0,0,0,0,0,0c-2.29-0.05-3.72,2.37-5.82,3.11
						c-1.13,0.4-3.15,0.62-2.96,1.89c0,0,0,0,0,0c-0.5,0.04-1.21,0.74-0.93,1.2c-0.61-0.67-0.25,1.59-1.29,1.61
						c-1.47,0.03-3.76,0.52-3.51,1.81c0,0,0,0,0,0c-0.42,0.14-1.13,0.23-1.03,0.83c0,0,0,0,0,0c-0.22-0.04-0.36,0.29-0.49,0.47
						c0,0,0,0,0,0c0,0,0,0,0,0c-0.03-0.03-0.12,0.01-0.13,0.03c-0.01,0.08-0.07,0.22,0.01,0.24c0,0,0,0,0,0
						c-0.22,0.26-0.71,0.27-0.82,0.59c0,0,0,0,0,0c-3-1.37-8.3,3.37-6.92,6.42c0.1,0.22,0.14,0.39,0.15,0.51
						c-0.03-0.11-0.08-0.27-0.15-0.51c0,0-0.07,0.06-0.09,0.08c0,0,0,0,0,0c-0.07-0.08-0.32,0.13-0.25,0.21
						c-0.37,0.39-0.76,0.78-0.97,1.27v0c0,0,0,0,0,0c-0.91-0.3-1.2,1.36-1.88,2.03v0c0,0,0,0,0,0c-0.11-0.08-0.34,0.27-0.23,0.34
						c0,0,0,0,0,0l-0.04,0.04c0,0,0,0,0,0c-0.63-0.31-1.22,0.78-1.27,1.44v0c0,0,0,0,0,0c-2.15,0.04-2.64,3.38-3.69,5.17
						c-0.86,1.45-1.89,2.65-3.05,3.72c-1.68,1.55-5.59,3.29-4.32,5.18c-0.64,0.13-1.25,0.55-1.15,1.18c0,0,0,0,0,0c0,0,0,0,0,0
						c-0.15-0.09-0.35-0.03-0.53-0.03c0.07-0.2-0.52-0.15-0.42,0.03c0,0,0,0,0,0c0,0,0,0,0,0c-0.34,0.12-1,0.29-0.89,0.64
						c-1.37,0.34-2.54,1.25-3.68,2.05c-1.25,0.87-4.23,1.68-3.35,3.13c-0.85-0.32-2.08-0.35-2.69,0.38
						c-0.94-1.34-4.26-0.62-4.61,0.92c-1-0.53-2.02-0.12-2.93,0.29c-2.63,1.18-5.08,0.91-7.43-0.71c-1.23-0.84-2.74-0.7-4.07-0.73
						c-0.61-0.02-1.13,0.23-1.68-0.28c-0.25-0.22-0.63-0.29-0.96-0.42c-2.33-0.93-4.99-2.1-7.26-1.17
						c-0.08-0.14-0.43-0.11-0.49,0.04c0,0,0,0,0,0c0,0,0,0,0,0c-0.25-0.12-0.55-0.06-0.83-0.08c0,0,0,0,0,0
						c0.06-0.14-0.18-0.39-0.31-0.32c0.08-0.12-0.26-0.39-0.35-0.27c0,0,0,0,0,0c-1.61-0.83-3.4-1.73-5.32-0.51
						c-0.15,0.09-0.48-0.05-0.7-0.14c-0.73-0.29-1.49-0.53-2.17-0.91c-1.4-0.78-3.18-1.3-4.27-0.27c-0.31-0.31-0.83-0.17-1.18,0.11
						c-0.12-0.4-1.44-0.3-1.16,0.19l-0.04,0.02c-0.57-0.39-1.41,0.59-2,0.44c-2.12-0.56-4.48,0.06-4.9,1.8
						c-0.86-0.39-2.33,0.08-2.61,1.05c-0.29-0.12-0.61-0.09-0.85,0.15c-1.33,1.31-3.5,1.51-4.61,2.98c0,0,0,0,0,0
						c-0.09-0.03-0.22,0.18-0.15,0.24c0,0,0,0,0,0c-0.08,0.09-0.13,0.2-0.17,0.32c0,0,0,0,0,0c-0.12-0.07-0.33,0.13-0.32,0.27
						c-0.79-0.35-1.9-0.42-2.43,0.29c0.17-0.59-1.76-0.63-1.58-0.02c0,0,0,0,0,0l0,0c-1.68,0.08-3.78,0.01-4.81,1.32c0,0,0,0,0,0
						c-0.57-0.49-2.4-0.25-2.17,0.55c-1.77,0.45-3.59-0.19-4.87,0.97c-0.56-1.06-2.56-0.4-2.47,0.52c-0.19-0.04-0.39,0.02-0.58,0.03
						c0.09-0.19-0.22-0.71-0.43-0.46c0,0,0,0,0,0c0,0,0,0,0,0c-0.03-0.07-0.1-0.12-0.17-0.15h0c0.13-2.55-4.94-0.09-7.07,1.44
						c-0.53,0.38-0.91,0.78-1.7,0.73c-1.81-0.11-3.69-1.64-5.32-0.88c-0.12-0.89-1.27-0.12-2.08-0.4h0c0.17-0.5-1.02-0.58-1.27-0.23
						c-1.44-1.58-2.99-1.14-3.32,0.25c-0.14-0.13-0.38-0.01-0.56-0.01c0.26-0.3-0.05-1.05-0.41-1.03c-1.36,0.09-3.9-2.03-3.93-0.5
						c0,0,0,0,0,0c-0.78-0.4-1.96-0.94-2.39-0.2c0,0,0,0,0,0c0,0,0,0,0,0c-0.73-0.74-2.01-0.74-3.02-0.74
						c-1.64-0.01-3.16-0.69-4.58-1.16c-1.75-0.58-3.66-3.12-5.28-2.12c-0.12-0.53-0.69-0.84-1.18-0.98c0.15-0.63-1.1-0.7-1.69-0.93
						c-1.15-0.45-2.5-2-3.54-1.13c-0.02-0.42-0.45-0.86-0.84-0.7c0,0,0,0,0,0c-0.26-1.35-2.77-3.24-3.71-1.76c0,0,0,0,0,0
						c-0.84-0.63-2.09-1.82-2.76-0.92c-0.08-0.07-0.23-0.07-0.32-0.02v0c0,0,0,0,0,0c-0.69-1.01-2.26-1.25-3.37-0.9c0,0,0,0,0,0
						c0,0,0,0,0,0c-0.14-0.63-1.14-0.95-1.81-0.58l0,0c-0.1-0.28-0.59-0.12-0.88-0.06c0,0,0,0,0,0c0,0,0,0,0,0
						c0.09-0.17,0.05-0.43-0.08-0.57c0.38-1.11-2.42-1.39-3.31-0.7c0,0,0,0,0,0c-0.32-0.45-1.1-0.83-1.56-0.53c0,0,0,0,0,0
						c-0.47-1.23-2.19-1.65-2.96-2.55c-1.36-1.6-3.29-2.34-4.69-3.8c-0.25-0.26-0.83-0.13-1.33-0.45c-0.01-0.01-0.01-0.02-0.02-0.03
						c0.39-1.11-0.68-2.11-1.61-2.79c-1.17-0.84-1.7-2.66-3.14-2.9c-0.31-2.77-5.32-5.61-7.54-3.6c0,0,0,0,0,0c0,0,0,0,0,0
						c-0.14-0.17-0.47-0.23-0.65-0.1c0,0,0,0,0,0v0c0.01-0.39,0.1-0.88-0.32-1.11c-3.05-1.7-6.21-3.16-9.82-2.48
						c-1.51,0.28-3.02,0.55-4.5,0.31c-1.8-0.3-3.42,0.58-2.89,2.04c0,0,0,0,0,0c0,0,0,0,0,0c-1.74-0.49-2.91-1.43-4.81-1.48
						c0,0,0,0,0,0c0,0,0,0,0,0c0.15-0.4,0.1-0.92-0.31-1.23c0,0,0,0,0,0c0,0,0,0,0,0c1.04-0.47-0.45-2.32-1.43-2.23
						c0.3-1.19-0.65-2.43-1.62-3.28c0,0,0,0,0,0c0.7-0.2,0-1.27,0.37-2.1v0c0.49,0.24,0.38-1.1,0-0.96c0,0,0,0,0,0c0,0,0,0,0,0
						c-0.01-0.3-0.12-0.61-0.03-0.89c0,0,0,0,0,0c0,0,0,0,0,0c0.12,0.09,0.37-0.26,0.26-0.35c0,0,0,0,0,0
						c0.14-0.28,0.06-0.89-0.25-0.73c0.38-1.91,0.56-4.04-0.68-5.39c0.56-0.41-0.06-1.39-0.18-2.07c-0.43-2.5-2.96-4.46-5.52-4.42
						c-0.73,0.01-1.56-0.02-2.19-0.43c0.12-0.09-0.14-0.45-0.26-0.36c0,0,0,0,0,0c-0.65-1.16-1.61-2.92-2.73-2.09
						c-1.11-1.52-2.95-1.76-4.57-2.44c-0.63-0.26-1.12-0.61-1.61-0.21c0,0,0,0,0,0c0.06-0.53-0.62-0.7-1.09-0.78
						c0.98-1.26-1.37-2.99-2.82-3.35c0,0,0,0,0,0c0.08-0.27-0.37-0.45-0.63-0.58c0.96-1.1-1.53-3.59-2.75-2.98c0,0,0,0,0,0
						c0,0,0,0,0,0c-0.06-0.33-0.39-0.44-0.65-0.34c0.35-1.22-1.28-2.11-1.86-3.13c-1.72-3.07-3.85-8.49-6.95-7.26
						c-0.03,0.01-0.05,0.03-0.08,0.05c0.01-0.01,0.03-0.02,0.04-0.04c0.02,0,0.03-0.01,0.04-0.01c0,0,0.01-0.03,0.01-0.04
						c0,0,0,0,0,0c0.67-0.94-0.88-2.57-2.15-2.44c0,0,0,0,0,0c0,0,0,0,0,0c0.95-0.84,0.32-2.37-0.61-2.44
						c0.09-0.28-0.05-0.63-0.2-0.87c-1.59-2.54-3.18-5.07-4.82-7.58c-0.29-0.45-1.07-1.29-1.4-0.7c0,0,0,0,0,0
						c-0.2-0.48-0.63-0.64-1.13-0.6c-1.04,0.09-1.56-0.58-1.98-1.37c-0.21-0.4-0.3-0.9-0.58-1.22c-1.43-1.63-2.41-3.35-1.16-5.5
						c0.9-1.55,2.39-3.11,1.37-4.99c-0.75-1.38-2.36-0.42-3.18-1.33c-0.84-0.94-1.12-2.41-2.26-3.01c1.51-1.07-1.03-3.67-2.69-2.72
						c0,0,0,0,0,0c-0.02-0.76-1.48-0.61-1.64-1.48c-0.23-1.29-1.81,0.09-2.69-1.48c-0.5-0.88,1.29-0.91,1.31-1.66
						c0.06-2.08-1.12-3.77-1.69-5.64c-0.27-0.89-0.8-1.73-0.76-2.7c0.04-0.88-0.2-1.58-0.9-2.14c-0.61-0.49-0.89-1.07-0.39-1.85
						c0.78-1.2,0.7-2.84-0.4-3.74c-1.38-1.14-1.86-2.67-2.42-4.23c-0.82-2.31-1.02-4.79-2.15-7.04c-0.36-0.71-0.8-1.62-0.68-2.68
						c0.37-3.11-1.22-5.95-1.5-8.99c-0.02-0.22-0.15-0.52-0.47-0.52c-0.38,0-0.5,0.3-0.54,0.61c-0.05,0.35,0,0.73-0.12,1.05
						c-0.12,0.36-0.49,0.56-0.85,0.52c-0.41-0.05-0.56-0.33-0.47-0.78c0.17-0.87-0.01-1.3-0.98-0.73c-0.28,0.16-0.46-0.01-0.58-0.42
						c-0.31-1.11-0.19-2.53-1.82-2.84c-0.4-0.08-0.4-0.53-0.4-0.9c0-0.81,0-1.62,0-2.43c0.46-0.16,0.66,0.9,1.12,0.23
						c0.25-0.38,0.01-0.77-0.42-0.98c-0.56-0.27-0.87-0.59-0.19-1.09c0.32-0.24,0.39-0.5-0.07-0.62c-0.3-0.08-0.87-0.48-0.91-0.03
						c-0.13,1.29-1.17,2.32-0.87,3.75c0.52,2.49,1.26,4.95,1.44,7.52c0.03,0.48,0.24,1.09,0.58,1.37c1.78,1.44,1,3.46,1.2,5.23
						c0.12,1.03-0.2,2.14,0.31,3.13c1.32,2.58,1.74,5.44,2.29,8.21c0.49,2.48,2.1,4.5,2.32,7.09c0.14,1.57,1.22,3.03,1,4.77
						c-0.07,0.58-0.04,1.48,0.31,1.74c1.79,1.34,1.21,3.68,2.38,5.24c0.67,0.89,0.43,2.2,1.4,2.95c0.04,1,0.67,1.52,1.51,1.87
						c0.39-0.49,0.64-0.8,0.71-1.01c-0.07,0.21-0.32,0.52-0.71,1.01c0.2,0.68,0.44,1.35,0.58,2.03c0.14,0.67,0.25,1.49,1.02,1.46
						c0.68-0.02,1.25-0.64,1.45-1.37c0.33-1.18-0.44-3.49,0.93-3.74c0.9-0.16,1.28,1.03,1.29,1.97c0.01,0.73,0.69,0.5,0.88,0.19
						c0,0,0,0,0,0c0,0,0,0,0,0c0.67,0.72,1.38,1.1,2.15,1.55c0,0,0,0,0,0c-0.41,0.27,0.16,0.81,0.46,1.2
						c0.73,0.94,1.36,1.91,1.69,3.14c0.43,1.6-0.54,2.68-1.1,3.86c-0.3,0.64-1.18,2.62-1.97,1.84c-0.55-0.54,0.48-1.22,0.7-1.71
						c0.2-0.46-0.03-0.91-0.42-0.71c0.15-0.67,0.38-1.8-1.13-1.35c-0.33,0.1-0.38-0.26-0.29-0.51c0.4-1.1-0.2-2.22-1.34-1.51
						c0,0,0,0,0,0c-0.02-0.13-0.15-0.25-0.28-0.29v0c0.2-0.72,0.17-1.2-0.19-1.48c-0.49-0.38-1.2-0.47-1.87-0.3
						c-0.29,0.07-0.4,0.3-0.34,0.57c0.15,0.65,0.6,1.02,1.22,1.18c0.24,0.06,0.49,0.08,0.74,0.08c-0.98,0.81,0.07,2.36,0.24,3.54
						c0.43,3.03,2.81,5.02,3.99,7.66c0.73,1.65,1.29,3.76,2.89,4.65c-0.41,0.89,0.38,2.52,1.62,2.43c-0.51,0.74,0.06,1.81,0.75,2.37
						c1.65,1.36,2.29,3.42,3.55,5.06c2.38,3.11,4.57,6.45,6.25,10.05c0.19,0.4,0.47,0.86,0.83,1.05c1.8,0.94,2.26,4.62,4.11,4.06v0
						c0.03,0.58,0.25,1.2,0.68,1.59c-1.11,0.82,1.59,3.08,2.06,1.68c0.29,0.38,0.39,0.69,0.62,1.27c-0.48-0.05-0.74,0.52-0.49,0.93
						c1.02,1.66,1.48,3.82,3.15,4.87c2.26,1.4,4.05,3.36,5.47,5.35c1.73,2.43,3.95,4.28,5.91,6.41c1.01,1.1,1.84,3.61,3.41,3.13
						c0,0,0,0,0,0v0c0,0,0.09,0.04,0.12,0.05c-0.14,0.07,0.12,0.33,0.19,0.19c0.02,0.05,0.05,0.09,0.08,0.14
						c-0.27-0.01-0.05,0.78,0.18,0.63c0.15,0.25,0.34,0.53,0.61,0.6c-0.59,2.62,2.68,6.24,5.4,5.87c-0.03,1.01,0.93,1.95,1.84,2.39
						c0,0,0,0,0,0c0,0,0,0,0,0c-0.12,0.16,0.16,0.37,0.38,0.3c0.08-0.03,0.25-0.2,0.18-0.31c0,0,0,0,0,0c0,0,0,0,0.01,0
						c0.16,0.23,0.07,0.53,0.28,0.38c0,0,0,0,0,0c0.17,0.57,0.84,0.88,1.39,1.12c-0.28,0.5,1.32,0.65,1.27,0.17
						c0.27,0.04,0.66,0.36,0.82,0.19c-0.23,0.3,0.03,0.97,0.24,1.08c1.63,0.89,2.04,4.22,3.78,3.73c0,0,0,0,0,0
						c0.03,0.16,0.19,0.28,0.34,0.34c0,0,0,0,0,0c-0.12,0.13-0.02,0.37,0.05,0.53c0,0,0,0,0,0c-0.1,0.09,0.16,0.39,0.26,0.3v0
						c0.45,0.38,0.96,1.2,1.5,0.95c0.02,0.89,0.8,1.52,1.54,1.6c-0.81,0.59-0.18,1.27,0.38,1.57c1.64,0.86,2.71,2.4,4.29,3.33
						c2.01,1.18,4.26,2.06,5.51,4.24c0.07,0.12,0.24,0.18,0.35,0.29c1.46,1.39,3.39,2.16,4.81,3.62c0.18,0.19,0.56,0.29,0.84,0.29
						c1.33-0.04,2.53,0.22,3.66,0.99c0.64,0.44,1.5,1.38,2.17,0.96c0,0,0,0,0,0c0,0,0.05-0.03,0.07-0.03h0c0,0,0,0,0,0
						c-0.17,0.32,0.57,0.68,0.79,0.44c0,0,0,0,0,0c0.22,0.45,0.8,0.73,1.2,0.49c0.03,0.91,1.28,1.17,2.09,1.22
						c-0.4,0.86,1.14,1.37,1.89,1.21v0c0.8,1.74,3.66,3.8,5.19,2.45c0.08,0.45,0.46,0.81,0.9,0.93c-0.58,1.69,3.66,0.83,4.58,2.78
						c0.18,0.38,0.72,0.28,1.11,0.28c0,0,0,0,0,0c-0.53,1.02,1.55,1.98,2.59,1.79c0.13,1.44,2.28,1.43,3.66,2.14
						c-0.21,0.27,0.28,0.64,0.61,0.64c-0.83,1.5,1.73,2.34,3.05,2.73c-0.44,1.21,2.27,0.97,3.35,1.62c1.44,0.87,2.58,3.08,4.83,1.57
						c0.06-0.04,0.19,0.03,0.28,0.05c2.45,0.72,4.92,1.03,7.47,0.69c0.79-0.1,1.52,0.1,2.31,0.49c1.71,0.85,3.43,3.75,5.2,2.41
						c0,0,0,0,0,0c0.12,0.53,0.69,0.9,1.2,1.1c-0.55,0.68,0.78,1.45,1.56,1.59c0,0,0,0,0,0c-0.14,0.33,0.36,0.98,0.68,0.83
						c0.45,0.61,1.31,0.86,2.02,1.03c2.02,0.49,4.93,2.93,6.14,1.05c0,0,0,0,0,0c0.38,0.24,1.08,0.07,1.33-0.31c0,0,0,0,0,0
						c0,0,0,0,0,0c0.06,0.08,0.18,0.09,0.28,0.07c0,0,0,0,0,0c0.1,1.09,2.08,0.26,3.15,0.08c1.04-0.17,2.08-0.5,3.16-0.29
						c2.34,0.45,4.9,1.51,7.08,0.54c0.17,0.28,0.84,0.24,0.99-0.05c1.77,1.23,4.29,0.17,6.38,0.9c1.01,0.35,2.22,1.01,3.32,0.25
						c0,0,0,0,0,0c0.05,0.21,0.49,0.29,0.62,0.13c1.98,2.47,5.38,1.7,8.2,2c0.05,0.01,0.23-0.13,0.19-0.22c0,0,0,0,0,0
						c0.03-0.01,0.08-0.04,0.1-0.06c0,0,0,0,0,0c0,0,0,0,0,0c0.21,0.26,0.76,0.34,0.99,0.09c0.14,0.2,0.46,0.37,0.65,0.33
						c2.65-0.56,5.17,1.58,7.66,0.84c0,0,0,0,0,0c-0.01,1.46,3.4,1.54,3.89,0.33c0,0,0,0,0,0c1.51,0.33,3.6,1.02,4.57-0.23
						c0.3,0.53,0.81,0.44,1.33,0.48c0.93,0.07,1.8-0.4,2.74-0.22c2.61,0.51,5.44,1.01,7.82-0.07c0.17,0.51,1.08,0.37,1.57,0.05
						c0,0,0,0,0,0c0.54,0.87,1.81,0.58,2.77,0.22c2.54-0.94,5.14-1.19,7.83-0.89c1.54,0.17,3.24,0.68,4.62-0.14
						c2.11-1.26,4.48-0.65,6.64-1.31c0.04-0.01,0.1,0.03,0.15,0.03c1.81-0.02,4.15,1.23,5.42-0.06c1.15,0.91,4.58,0.65,4.31-0.86
						c0,0,0,0,0,0c0.72,0,1.6-0.19,1.81-0.92v0c0.82,0.57,3.32,0.71,2.94-0.37c0.45-0.05,0.83-0.12,1.31,0.05
						c1.5,0.54,3.08,0.61,4.6,0.17c3.12-0.9,8.36,0.22,9.29-2.95c0,0,0,0,0,0c1.3,0.44,3.04-0.47,3.79-1.63c0,0,0,0,0,0c0,0,0,0,0,0
						c0.1,0.13,0.32,0.04,0.37-0.15c0,0,0,0,0,0c0.1,0.16,0.36,0.18,0.55,0.15v0c0.06,0.49,1.4,0.26,1.24-0.21
						c0.75-0.17,1.45-0.35,2.16-0.51c2.09-0.49,4.14-0.88,6.11-1.9c0.62,0.64,2.15-0.01,2.43-0.91c0,0,0,0,0,0
						c0.1,0.02,0.22,0,0.31-0.05c0.17,0.27,0.94,0.07,0.93-0.25l0,0c1.09-0.05,2.08-0.73,3.09-1.04c1.24-0.38,2.42-0.99,3.72-1.3
						c1.27-0.3,3.38,0.75,3.84-0.77c0,0,0,0,0,0c0.4,0.22,1.3-0.12,1.24-0.57c0,0,0,0,0,0l0,0c1.57-0.07,2.32-1.68,3.95-2.27
						c0,0,0,0,0,0c0.03,0.03,0.07-0.01,0.11-0.07c0.02-0.01,0.04-0.03,0.05-0.04c0.07-0.03,0.13-0.05,0.1-0.09c0,0,0,0,0,0
						c0.01-0.01,0.04-0.03,0.04-0.03s0,0,0,0c0,0,0,0,0,0c0.35,0.28,1.34,0.02,1.25-0.45c0,0,0,0,0,0c0,0,0,0,0,0
						c1.56,0.11,4.73,0.24,4.34-1.6c0.03,0.01,0.1,0.02,0.14,0.02c0.03,0,0.13-0.05,0.13-0.05c1.86,1.11,4.26-1.02,6.05-2.27
						c0.07,0.08,0.31-0.13,0.24-0.21c1.13-0.74,2.44-1.17,3.66-1.75c4.7-2.23,8.37-6.09,13.1-8.3c2.92-1.36,4.68-4.49,7.96-5.38
						c0.08-0.02,0.14-0.15,0.19-0.23c0.77-1.11,2.14-1.52,2.95-2.6c0.83-1.1,2.41-1.29,3.17-2.42c0.59-0.87,1.32-1.3,2.26-1.65
						c4.04-1.48,11.2-3.12,10.18-7.21c1.02,1.03,2.24-1.19,3.16-2.22c1.26-1.41,1.88-3.28,3.4-4.48c1.66-1.31,3.37-2.56,4.16-4.65
						c0.16-0.44,0.7-0.35,1.01-0.57c0.77-0.53,2.16-0.29,2.43-1.18c0.73-2.41,3.59-3.35,3.97-5.95c0.02-0.15,0.48-0.19,0.59-0.37
						c0.66-1.02,2.14-0.64,2.79-1.66c0.97-1.51,2.46-2.67,2.96-4.5c0.14-0.52,0.46-1.07,1.16-1.01c1.39,0.14,1.99-0.73,2.13-1.86
						c0,0,0,0,0,0c0.32,0.04,0.49-0.75,0.23-0.94c0.01-0.01,0.04-0.03,0.05-0.05c0,0,0,0,0,0c0.16,0.12,0.56-0.1,0.53-0.3
						c0,0,0,0,0,0l0.07-0.05c0,0,0,0,0,0c0,0,0,0,0,0.01c0.07,0.09,0.34-0.12,0.27-0.21c0,0,0,0,0,0c1.53-1.33,2.63-3.09,4.03-4.55
						c1.68-1.76,2.96-4.07,4.48-6.11c0.59-0.79,1.05-1.72,1.84-2.31c0.85-0.63,1.45-1.32,1.72-2.36c0.25-0.96,0.65-2.04,1.71-2.26
						c1.57-0.33,2.25-1.71,2.92-2.71c1.47-2.17,2.49-4.63,4.06-6.77c0.34-0.46,0.59-1.09,0.88-1.5c1.05-1.45,1.67-3.11,2.62-4.61
						c0.74-1.15,1.69-2.36,1.72-3.75c0.06-2.51,0.25-4.84,2.81-6.16c0.15-0.08,0.24-0.32,0.3-0.51c0.95-3.17,3.03-5.74,4.55-8.61
						c0.68-1.28,1.61-2.52,1.26-4.16c-0.13-0.63,0.27-1.18,0.89-1.21c0.99-0.05,0.93-0.61,0.97-1.33c0.09-1.5,0.03-3.08,0.52-4.45
						c0.67-1.85,1.88-3.49,2.25-5.51c0.25-1.37,0.19-2.17,0.3-4.09c0.09-1.7,0.4-3.02,1.38-4.29c0.29-0.38,0.44-0.84,0.34-1.29
						c-0.21-0.99,0.33-1.37,1.15-1.63c0.45-0.14,1.09-0.16,1.03-0.89c-0.07-0.95-0.01-1.96-0.32-2.83
						c-0.28-0.78-0.05-1.55,0.38-1.73c1.6-0.7,1.3-2.21,1.7-3.42c0.15-0.47,0.36-0.9,0.56-1.34c0.63-1.43,2.28-2.55,1.37-4.51
						c-0.61-1.31-0.43-2.66,0.44-3.88c0.28-0.4-0.08-0.72-0.21-1.1c-0.2-0.6-0.62-1.36,0.39-1.75c1.43-0.54,2.33-1.82,1.69-3.06
						c0,0,0,0,0,0c0,0,0,0,0,0c0.45-0.16-0.2-0.76-0.5-1c-0.56-0.45,0.36-0.65,0.17-0.92c0,0,0.06-0.05,0.07-0.06
						c0.14,0.2,0.63-0.41,0.35-0.48c0,0,0,0,0,0c1.23-2.42,0.79-5.28,0.63-7.92c0.55,0.03,1.08-0.76,0.89-1.24
						c0.2-0.1,0.29-0.33,0.4-0.52c0,0,0,0,0,0c0.14,0.12,0.36-0.4,0.16-0.4c0.04-0.09,0.05-0.19,0-0.28
						c0.24-0.04,0.4-0.51,0.24-0.69c0,0,0.06-0.06,0.09-0.08c0,0,0,0,0,0c0.07,0.09,0.33-0.11,0.27-0.2
						c0.47-0.35,0.79-0.82,0.85-1.39c0.21-2,1.79-3.25,3-4.39c1.71-1.59,3.64-3,5.41-4.58c0.62-0.56,1.16-1.33,2.05-1.57
						C1238.39,909.31,1240.94,906.05,1240.58,902.18z"/>
					<path class="st1" d="M827.17,744.44c2.15,0.89,7.01,1.25,8.14-1.39c0.77,0.47,1.04-1.27,1.38-2.02
						c0.22-0.49-0.03-0.65-0.44-1.32c0,0,0,0,0,0c0.34,0.02,0.13-0.18-0.19-0.48c0.37-0.72,1.76-2.07,1.03-2.86
						c0.24-0.11-0.05-0.65-0.27-0.55c0-0.01-0.02-0.04-0.02-0.04c0.62-0.66,0.61-2.52-0.27-2.7v0c0,0,0,0,0,0
						c0.04-1.43-1.44-2.4-3.06-1.98c-1.4,0.36-2.84,0.95-3.3,2.52c0,0,0,0,0,0c-0.1-0.02-0.17,0.28-0.07,0.31c0,0,0,0,0,0
						c-0.06,0.11-0.14,0.33-0.25,0.28c0.14,0.26-0.46,0.61-0.34,0.88c-0.12-0.13-0.56,0.21-0.42,0.34
						c-0.35,0.13-1.13-0.03-1.02,0.35c0,0,0,0,0,0c-2.18,0.77-2.07,3.86-2.48,6.01C825.36,742.95,826.19,744.03,827.17,744.44z"/>
					<path class="st1" d="M943.98,669.81c0.24,0.02,0.49-0.17,0.73-0.17c1.13-0.01,2.22-0.14,3.19-0.83
						c0.4-0.28,0.85-0.26,1.31-0.08c1.4,0.54,2.36-0.14,3.04-1.24c0.32-0.53,0.44-0.67,0.98-0.26c0.53,0.4,2.02-0.49,2.06-1.16
						c0.01-0.31-0.18-0.58-0.43-0.46c-1.18,0.53-2.74-0.25-3.69,1c-0.34,0.45-0.64,0.3-1.05,0.19c-0.67-0.18-1.38,0.13-1.86,0.51
						c-1.08,0.85-2.25,1.07-3.55,1c-0.3-0.02-0.62,0.01-0.89,0.12c-0.73,0.32-1.53,0.87-1.17,1.67
						C943.04,670.97,943.47,669.78,943.98,669.81z"/>
					<path class="st1" d="M855.41,715.5c0.14-0.05,0.31-0.09,0.39-0.22c0.23,0.24,0.85,0.13,0.93-0.26c0,0,0,0,0,0
						c0.29,0.28,0.65-0.16,0.89-0.39c0,0,0,0,0,0c0.08,0.15,0.39-0.24,0.22-0.28c0,0,0,0,0,0c0,0,0,0,0,0
						c2.43-2.11,5.54-3.06,8.95-3.26c2.26-0.13,4.57-1.16,6.05-3.26c0.82-1.16,1.28-2.52,1.36-3.83c0.08-1.32,0.34-3.21-1.03-3.95
						c0.17-0.26-0.73-0.44-0.66-0.12c-0.18,0-0.48-0.1-0.52,0.07c0,0,0,0,0,0c-0.22-0.2-0.58-0.31-0.67-0.06
						c-0.81-1.24-1.72-0.39-2.03,0.48c-1.84-0.83-4.88,1.2-4.95,3.26c-0.59,0-1.15,0.35-1.66,0.65c-0.51,0.3-2.18,0.36-1.45,1.12
						c-0.15-0.09-0.44-0.03-0.5,0.12c-0.73-0.51-1.41-0.04-1.88,0.73c0,0,0,0,0,0c-0.13-0.15-0.51,0.32-0.34,0.42
						c-0.07-0.03-0.17,0.04-0.24,0.08c0,0,0,0,0,0c-0.09-0.09-0.37,0.19-0.27,0.28c0,0,0,0,0,0c0,0,0,0,0,0
						c-1.9,1.53-3.85,3.12-4.01,5.48c-0.23-0.07-0.42,0.54-0.17,0.61c-0.12,0.16-0.16,0.36-0.25,0.54c-0.3,0.66-0.44,1.44,0.05,1.96
						C854.12,716.2,854.81,715.72,855.41,715.5z"/>
					<path class="st1" d="M771.21,936.21c0.93-0.14,1.61-1.91,1.04-3.19c-0.38-0.84-0.45-1.49,0.18-2.2c0.3-0.35,0.4-0.81,0.33-1.22
						c-0.03-0.51,0.07-1.01-0.41-1.3c-0.34-0.2-0.57,0.03-0.78,0.25c-0.37,0.39-0.42,0.76,0.03,1.16c0.39,0.35,0.1,0.75-0.03,1.12
						c-0.31,0.92-0.56,1.84-0.17,2.81c0.23,0.59-0.01,0.86-0.62,0.88c-0.56,0.01-1.16,0.2-0.97,0.82
						C769.97,935.85,770.46,936.32,771.21,936.21z"/>
					<path class="st1" d="M1162.31,740.97C1162.31,740.97,1162.31,740.97,1162.31,740.97L1162.31,740.97
						c-0.81,1.62,1.91,2.94,3.01,4.3c1.18,1.46,2.48,2.83,1.75,5.04c-0.3,0.89,0.35,2.14,1.04,2.35c1.86,0.56,3.36,2.8,5.2,2.34
						c0.28,0.8,0.94,1.57,1.77,1.34c0.88-0.24,0.52-1.41,0.86-2.11c0.02-0.05,0.06-0.08,0.08-0.13c0.6-1.2,0.73-2.31-0.18-3.49
						c-0.57-0.74-0.85-1.7-1.31-2.54c-0.39-0.71-1.28-2.18-1.81-1.4c-0.08-0.39-0.27-0.7-0.59-0.57c-0.03-0.11-0.22-0.19-0.31-0.12
						c0,0,0,0,0,0c-0.02-0.09-0.07-0.17-0.17-0.18c0.93-1.65-3.11-4.49-4.12-3.05c-0.69-0.46-0.88-1.61-1.77-1.53
						c0.24-1.23-1.01-2.39-2.53-2.8c-1.06-0.29-2.5-0.08-2.56,0.79C1160.6,740.22,1161.24,741.09,1162.31,740.97z"/>
					<path class="st1" d="M935.77,671.1c0.22-0.36,0.58-0.85,0.91-0.59c1.4,1.13,2.61,0.97,3.8-0.29c0.03-0.03,0.18,0.06,0.28,0.08
						c0.52,0.12,0.84-0.15,0.79-0.62c-0.05-0.58-0.49-0.3-0.82-0.23c-1.29,0.26-2.47,0.59-3.71,0.34c-0.84-0.17-1.57-0.13-2.05,0.45
						c-0.32,0.38-1.21,0.67-0.73,1.24C934.61,671.93,935.38,671.73,935.77,671.1z"/>
					<path class="st1" d="M773.65,843.83v-0.02l-0.03,0.02c-0.02,0.35-0.05,0.7-0.06,1.05c-0.02,0.62-0.17,1.24-0.76,1.53
						c-0.45,0.21-0.89-0.12-1.23-0.39c-0.65-0.56-0.06-1.09,0.12-1.61c-0.15-0.61,0.56-0.85,0.58-1.38c0.5-0.06,0.98-0.12,1.47-0.17
						c0.03,0.11,0.05,0.21,0.06,0.33C774.01,843.46,773.94,843.66,773.65,843.83z"/>
					<path class="st1" d="M931.4,673.19c0.7-0.02,1.21-0.91,2.08-0.4c0.29,0.17,0.44-0.26,0.3-0.61c-0.25-0.6-0.75-0.53-1.37-0.54
						c-0.48,0-1.01,0.04-1.51,0.34c-0.43,0.26-0.73,0.63-0.54,1.12C930.6,673.72,931.05,673.19,931.4,673.19z"/>
					<path class="st1" d="M1133.33,714.44c0.33,1.57,1.4,3.16,2.99,3.62c-1.55,1.7,1.29,4.44,1.05,6.82
						c-0.06,0.57,0.54,0.94,0.91,1.34c0.82,0.88,2.06,1.02,2.97,1.65c1.1,0.75,1.4,0.08,1-0.6c0,0,0,0,0,0l0,0
						c0.92,0.05,1.33,0.63,2.03,0.59c0,0,0,0,0,0c-0.2,1.32,2.2,0.84,3.39,0.5c1.03-0.29,1.76-2.08,1.07-2.87
						c-1.56-1.8-3.33-6.13-5.34-4.71c0,0,0,0,0,0c-0.14-0.13-0.4-0.11-0.57-0.02c0,0,0,0,0,0c-0.12-0.54-0.2-1.37-0.88-1.25
						c0,0,0,0,0,0c0,0,0,0,0,0c0.21-0.62-0.62-1.07-1.11-1.55c-1.99-1.96-4.14-3.93-6.82-4.49c0.16-0.53-0.71-0.88-1.36-0.71
						c-0.33,0.09-0.43,0.4-0.42,0.72C1132.27,714.16,1132.87,714.85,1133.33,714.44z"/>
					<path class="st1" d="M804.17,777.92c0.2-0.17,0.29-0.59,0.29-1c0-0.59-0.2-1.15-0.58-0.85c0.06-0.11-0.26-0.35-0.33-0.24
						c0,0-0.03-0.03-0.05-0.05c0.17-0.06,0.26-0.29,0.26-0.53c0-0.18-0.06-0.36-0.2-0.44c0.38-0.56-0.14-1.2-0.61-1.48
						c0.06-0.08,0.09-0.17,0.09-0.27c0-0.17-0.08-0.36-0.2-0.45c0.15-0.09,0.23-0.29,0.29-0.47c0.08,0,0.12-0.12,0.12-0.23
						c0-0.09-0.03-0.18-0.09-0.18c0.03-0.18,0.15-0.33,0.18-0.51c0.42,0.14,0.33-1.15-0.08-0.95c-1.49-1.89-3.89,0.5-5.32,1.98
						c-1.29,1.33-2.15,3-3.3,4.45c-0.76,0.94-1.95,2.89-0.53,3.64c-0.73,0.15-1.56,0.23-1.59,1.35c-0.01,0.44-0.73,0.48-0.92,0.88
						c-0.09-0.06-0.2-0.08-0.29-0.08c-1.14,0-2.21,3.23-0.53,3.32c-0.15,0.41-0.56,0.89-0.32,1.26c-0.01-0.02-0.03-0.03-0.05-0.03
						c-0.14,0-0.33,0.36-0.17,0.39c-0.27,0.44-0.59,0.97-0.59,1.42c0,0.21,0.06,0.42,0.24,0.59c-0.27,0.18-0.3,0.76-0.06,0.97
						c-0.73,1.17-0.74,2.14-0.94,3.35c-0.48-0.17-1.15,0.41-1.2,0.91c-0.11-0.06-0.26-0.09-0.39-0.09c-0.39,0-0.82,0.2-0.71,0.47
						c-0.33,0.17-0.95,0.48-0.68,0.86c-1.08,0.52-1.47,1.94-1.47,3.23v0.08c0.01,0.5-0.12,0.88-0.41,1.27
						c-0.64,0.86-0.41,1.92,0.58,1.86c-0.2,0.2-0.39,0.53-0.39,0.83c0,0.15,0.06,0.3,0.21,0.41c-0.32,0.3-0.83,0.73-0.83,1.12
						c0,0.12,0.05,0.24,0.17,0.35c-0.06,0.05-0.08,0.12-0.08,0.21c0,0.11,0.03,0.24,0.03,0.36c-0.74-0.3-1.06,1.15-1.32,1.95
						c-0.67,2.03-1.39,4.04-2.11,6.06c-0.03,0.11-0.08,0.2-0.12,0.3c-0.01,0.2-0.05,0.39-0.06,0.58v0.02
						c-0.24,0.17-0.33,0.38-0.21,0.67c-0.03,0.14-0.06,0.27-0.11,0.41c-0.05,0.09-0.12,0.15-0.23,0.17
						c-1.06,1.61-1.38,3.59-2.53,5.17c-0.12,0.18,0.05,0.58,0.09,0.88c0.17,0.47,0.15,0.89,0.05,1.41
						c-0.23,1.09-1.03,1.89-1.23,2.95l-0.12,0.08h-0.05c-0.14,0-0.2,0.08-0.2,0.21l-0.06,0.08c-0.02,0.09-0.06,0.17-0.15,0.21
						c-0.39,1.38-1.5,2.68-0.42,4.2c-0.2,0.61-1.05,0.83-0.97,1.61c-0.49,1.47-0.68,3-1.03,4.48c-0.36,1.53-0.62,3.04-0.73,4.61
						c0.01,0.45,0.03,0.91,0.03,1.38c0.5-0.06,0.98-0.12,1.47-0.17c0.18-0.38,0.3-0.76,0.21-1.18c0.5-0.8,1.01-1.61,2.03-1.8
						c1.76-0.35,3.01-1.24,4.03-2.8c1.01-1.55,1.26-3.54,2.82-4.74c1.32-1.01,1.71-2.42,1.86-3.98c0.06-0.53,0.44-1.03,0.27-1.61
						c0.18-0.06,0.36-0.3,0.36-0.48c0-0.05-0.02-0.09-0.03-0.12c0.26-0.17,0.29-0.56,0.32-0.88c0.67,0.06,0.94-1.36,0.56-1.91
						c1.36-0.29,1.73-1.95,1.11-2.95c0.08-0.03,0.12-0.15,0.12-0.26c0-0.08-0.03-0.15-0.08-0.18c0.06-0.06,0.08-0.15,0.08-0.23
						c0,0,0,0,0.02,0c0.05,0,0.11-0.08,0.11-0.08c-0.03-0.08-0.05-0.24-0.12-0.23c0.36-0.39,0.61-1.03,0.38-1.5
						c0.27-0.09,0.5-0.35,0.61-0.62c0.03,0.02,0.08,0.02,0.11,0.02c0.38,0,0.48-1.05,0.15-1.26c0.05-0.08,0.01-0.2,0.06-0.27
						c0.01,0,0.01,0.02,0.03,0.02c0.12,0,0.3-0.29,0.2-0.36c0.06-0.09,0.15-0.15,0.15-0.26v-0.01c0.01,0,0.01,0,0.03,0
						c0.18,0,0.35-0.29,0.35-0.42c-0.02-1.45,0.67-2.35,2.06-2.74c0.23-0.06,0.55-0.41,0.52-0.7c0.61,0.08,0.92-0.8,1.3-1.21
						c1.08-1.21,1.86-2.74,1.53-4.38c-0.27-1.32-0.35-2.5-0.2-3.83c0.09-0.77,0.17-1.95-0.62-2.65c-0.68-0.59-0.64-1.42-0.33-1.92
						c0.48-0.77,0.86-1.68,0.36-2.27c0.61-0.56,0.73-1.36,0.73-2.18c0-0.61-0.06-1.23-0.06-1.8c0.26,0.2,0.53,0.29,0.82,0.29
						c1.08,0,2.26-1.21,2.85-2.18c0.62,0.39,1.03-0.73,1.5-1.23c0.09,0.12,0.44-0.14,0.35-0.26c1.48-0.89,2.65-2.24,2.35-3.65
						c-0.27-1.32,0.2-2.24,1-3.11C804.45,780.02,804.87,778.76,804.17,777.92z M780.78,816.71c-0.06-0.09-0.11-0.18-0.17-0.27
						c0.06,0.09,0.12,0.18,0.18,0.27C780.8,816.71,780.8,816.71,780.78,816.71z"/>
					<path class="st1" d="M771.4,927.73c0.29-0.01,0.41-0.23,0.41-0.52c0-0.27-0.06-0.54-0.38-0.51c-0.25,0.03-0.41,0.25-0.44,0.53
						C770.96,927.55,771.1,927.74,771.4,927.73z"/>
					<path class="st1" d="M1057.33,698.51c1.28-3.89-1.82-9.76-5.01-8.22c0,0,0,0,0,0c-0.85-2.86-6.04-3.02-7.51-0.93
						c-0.38-0.2-0.78,0.4-1.27,0.13c-0.71-0.39-1.59-0.29-2.17,0.06c-1.41,0.85-3.64,0.06-4.49,1.37c0,0,0,0,0,0c0,0,0,0,0,0
						c-0.84-0.94-2.61-0.33-3.2,1.02c-0.59,1.37-2.38,1.68-2.65,3.18c-0.47-0.19-0.96,0.26-1.19,0.66c0,0,0,0,0,0c0,0,0,0,0,0
						c-0.23-0.24-1.07-0.13-0.94,0.22c-0.46,0.07-0.74,0.53-0.64,0.96c0,0,0,0,0,0c-0.39-0.1-0.56,0.46-0.57,0.89
						c0,0-0.02,0.04-0.01,0.05c0,0,0,0,0,0s0,0,0,0c0-0.01,0.01-0.05,0.01-0.05c-0.51-0.39-1.22,0.41-1.81,0.65
						c0.3-1.27-2.05-1.23-3.06-0.81c-0.71-2.03-4.27-0.09-6.41-0.04c-1.56,0.03-3.24,2.61-1.92,3.3c0,0,0,0,0,0c0,0,0,0,0,0
						c-0.27,0.19-0.45,0.62-0.24,0.92c0,0,0,0,0,0c-1.08,0.88,2.34,2.51,2.79,1.43c1.45,0.68,3,1.73,4.52,1.33
						c0.43,0.92,0.99,1.2,1.88,1.51c0,0,0,0,0,0c-0.11,0.22,0.03,0.46,0.33,0.59l0,0c-0.06,0.09,0.22,0.26,0.27,0.17
						c0.09,0.06,0.18,0.14,0.28,0.16h0c-0.07,0.31,0.64,0.58,0.88,0.37c0.11,0.89,0.68,0.81,1.28,0.9c0.74,0.1,1.48,0.04,2.22,0.12
						c2.05,0.23,3.5,1.62,5.22,2.44c1.31,0.63,2.41,0.62,3.55-0.13c-0.02,0.17,0.3,0.05,0.24-0.06h0c0,0,0,0,0,0
						c3.51-0.33,6.65-2.41,10.37-1.71c0.78,0.15,2.47,0.25,2.81-0.99c0.59,0.43,2,0.59,2.14-0.3c0,0,0,0,0,0
						c0.44,0.14,1.17-0.5,0.83-0.98c0,0,0.01-0.03,0.01-0.04c0,0,0,0,0,0c0.2,0.08,0.52-0.31,0.41-0.49c0,0,0,0,0,0
						c1.18-0.42,1.36-1.87,2.08-2.78c0.16,0.14,0.11-0.12,0.02-0.48c0.24-0.39,0.77-0.85,0.44-1.11c0,0,0,0,0,0
						c0.09-0.04,0.1-0.16,0.14-0.25c0.11,0.06,0.29-0.27,0.18-0.33c0,0,0,0,0,0c0.05-0.19,0.07-0.39,0.03-0.58
						C1057.91,700.5,1058,698.75,1057.33,698.51z"/>
					<path class="st1" d="M784.9,983.04c-0.01-0.04-0.04-0.1-0.08-0.1c-0.04,0-0.09,0.04-0.09,0.08c0,0.06,0.07,0.14,0.13,0.13
						C784.9,983.14,784.91,983.08,784.9,983.04z"/>
					<path class="st1" d="M829.85,734.19c0,0-0.02-0.04-0.03-0.03c-0.01,0.01,0.01,0.05,0.02,0.05c0,0,0,0,0,0c0,0,0,0,0.01,0
						C829.85,734.21,829.86,734.2,829.85,734.19C829.85,734.19,829.85,734.19,829.85,734.19z"/>
					<path class="st1" d="M1176.45,766.12c0.68,1.69,1.04,3.48,0.74,5.37c-0.12,0.75,0.11,1.61,0.69,2.26
						c0.55,0.62,0.97,1.37,0.95,2.18c-0.07,2.67-0.74,6.92,1.79,7.5c-0.11,0.28-0.13,0.72,0.11,0.91c0,0,0,0,0,0
						c-0.62,0.41-0.75,1.43-0.29,2.03c0,0,0,0,0,0c-0.29,0.14-0.36,0.79-0.09,0.97c0,0,0,0,0,0c-1.52,1.97,0.17,4.8,1.46,6.71
						c1.57,2.33,0.93,7.54,3.71,7.36c0,0,0,0,0,0c0.35,0.8,1.01,2.51,1.88,1.77c0.37,1.8,2.43,4,3.99,3.27c0,0,0,0,0,0
						c0.23,0.69,1.14,0.91,1.83,0.99v0c-0.12,0.3,0.46,0.45,0.76,0.35c1.2-0.38,2.09,0.49,3.23,0.64l0,0c0,0,0,0,0,0
						c-0.31,0.45-0.03,1.29,0.85,1.17c0,0,0,0,0,0c-0.08,0.37,0.91,0.5,0.99,0.12c0,0,0,0,0,0c0,0,0,0,0,0
						c0.07,0.07,0.15,0.13,0.22,0.2c0,0,0,0,0,0c-0.17,0.09,0.25,0.48,0.32,0.3c0,0,0,0,0,0c1.2,1.34,2.31,2.72,3.59,3.99
						c1.9,1.88,3.79,1.56,4.78-0.9c0.55-1.36,0.21-2.78,0.58-4.13c0.46-1.68,0.48-3.71-1.11-4.4c0,0,0,0,0,0
						c0.24-0.4-0.04-1.58-0.52-1.29c-0.19-0.51-0.37-1.62-0.92-1.37c0,0,0,0,0,0c-0.13-0.85-0.66-1.64-1.26-2.26
						c0.27-0.17,0.02-1.06-0.32-0.85c-0.03-0.11-0.04-0.28-0.16-0.32l0,0c0,0,0,0,0,0c0.05-0.13-0.03-0.45-0.17-0.4
						c-0.02-0.07-0.08-0.12-0.16-0.1c0,0,0-0.02-0.01-0.02h0c0.87-0.63-0.39-2.19-0.73-3.12c-1.53-4.14-3.31-8.2-6.01-11.76
						c-0.48-0.64-1.24-1.09-1.47-1.9c-0.45-1.63-1.58-2.92-3.15-2.64c0,0,0,0,0,0c-0.18-1.7-0.72-2.88-2.48-3.33c0,0,0,0,0,0
						c0.06-1.58-0.84-3.18-1.76-4.39c-1.36-1.79-1.6-4.65-3.6-5.62c0,0,0,0,0,0s0,0,0,0c0.81-1-0.97-2.56-2.02-2.43c0,0,0,0,0,0
						c-0.17-1.03-0.32-2.7-1.75-2.53h0c0,0,0,0,0,0c0.03-0.66-1.49-1.02-1.86-0.48c-0.06-0.09-0.19-0.14-0.28-0.07c0,0,0,0,0,0
						c-0.31-0.46-1.93-0.02-1.49,0.6c0,0-0.01,0.02-0.01,0.02c0,0,0,0,0,0c0,0,0,0,0,0c-0.12-0.1-0.3,0.24-0.12,0.26c0,0,0,0,0,0
						c0,0,0,0,0,0c-0.12,0.17-0.14,0.4-0.22,0.59c0,0,0,0,0,0c-0.11-0.05-0.27,0.29-0.16,0.34
						C1176.38,763.13,1175.81,764.52,1176.45,766.12z"/>
				</g>
				<path class="st1" d="M1120.77,783.35c0,1.61-0.4,2.42-1.21,2.42c-9.67,0-18.93,4.3-27.79,12.89
					c-8.86,8.6-15.98,20.14-21.35,34.64l-74.52,198.98c-0.27,1.07-1.75,1.61-4.43,1.61c-2.69,0-4.17-0.54-4.43-1.61L884.33,814.37
					c-4.83-9.67-9.67-16.85-14.5-21.55c-4.83-4.69-10.21-7.05-16.11-7.05c-0.81,0-1.21-0.81-1.21-2.42c0-1.61,0.4-2.42,1.21-2.42
					c4.03,0,6.85,0.14,8.46,0.4c5.37,0.54,12.35,0.81,20.95,0.81c23.09,0,42.7-0.26,58.81-0.81c4.29-0.26,9.67-0.4,16.11-0.4
					c0.81,0,1.21,0.81,1.21,2.42c0,1.61-0.4,2.42-1.21,2.42c-8.06,0-14.3,1.68-18.73,5.04c-4.43,3.36-6.65,8.12-6.65,14.3
					c0,4.57,1.47,10.07,4.43,16.51l69.68,148.63l52.36-138.16c2.68-7.51,4.03-13.96,4.03-19.33c0-8.32-2.49-14.9-7.45-19.74
					c-4.97-4.83-12.15-7.25-21.55-7.25c-0.81,0-1.21-0.81-1.21-2.42c0-1.61,0.4-2.42,1.21-2.42l19.74,0.4
					c11.28,0.54,21.35,0.81,30.21,0.81c5.1,0,11.41-0.26,18.93-0.81l16.52-0.4C1120.37,780.94,1120.77,781.74,1120.77,783.35z"/>
			</g>
		</g>
	</g>
	<g>
		<path class="st1" d="M763.64,1141.48c0.62,0,0.93,0.62,0.93,1.85c0,1.23-0.31,1.85-0.93,1.85c-7.21,0-13.9,2.78-20.07,8.34
			c-6.18,5.56-11.22,13.59-15.13,24.08l-60.21,156.55c-0.21,0.82-1.29,1.24-3.24,1.24c-1.96,0-3.14-0.42-3.55-1.24l-78.12-167.05
			c-3.5-7.41-7.1-12.92-10.81-16.52c-3.71-3.6-8.24-5.4-13.59-5.4c-0.62,0-0.93-0.62-0.93-1.85c0-1.24,0.31-1.85,0.93-1.85
			c2.67,0,4.89,0.11,6.64,0.31c1.75,0.21,3.91,0.36,6.48,0.46c2.57,0.11,6.02,0.15,10.34,0.15c9.88,0,17.96-0.05,24.24-0.15
			c6.28-0.1,11.53-0.26,15.75-0.46c4.22-0.2,7.97-0.31,11.27-0.31c0.62,0,0.93,0.62,0.93,1.85c0,1.23-0.31,1.85-0.93,1.85
			c-8.65,0-14.46,2.16-17.45,6.48c-2.99,4.32-2.52,10.5,1.39,18.53l59.59,129.07l-12.66,21.31l55.58-144.2
			c3.5-9.26,3.71-16.77,0.62-22.54c-3.09-5.76-9.88-8.65-20.38-8.65c-0.62,0-0.93-0.62-0.93-1.85c0-1.24,0.31-1.85,0.93-1.85
			c5.56,0,10.91,0.15,16.06,0.46c5.14,0.31,11.83,0.46,20.07,0.46c5.76,0,10.44-0.15,14.05-0.46
			C754.12,1141.63,758.49,1141.48,763.64,1141.48z"/>
		<path class="st1" d="M766.42,1334.46c-0.62,0-0.93-0.62-0.93-1.85s0.31-1.85,0.93-1.85c7,0,11.68-1.44,14.05-4.32
			c2.36-2.88,3.55-8.54,3.55-16.98v-56.2c0-7-0.72-12.09-2.16-15.28c-1.44-3.19-3.91-4.79-7.41-4.79c-1.65,0-3.5,0.31-5.56,0.93
			c-2.06,0.62-4.32,1.54-6.79,2.78c-0.82,0.21-1.5-0.31-2.01-1.54c-0.52-1.24-0.46-1.95,0.15-2.16l44.46-20.69
			c0.41-0.2,0.72-0.31,0.93-0.31c0.82,0,1.7,0.46,2.62,1.39c0.93,0.93,1.39,1.7,1.39,2.32c0,2.27-0.11,6.38-0.31,12.35
			c-0.21,5.97-0.31,14.2-0.31,24.7v56.5c0,8.44,1.18,14.1,3.55,16.98c2.36,2.89,7.05,4.32,14.05,4.32c0.62,0,0.93,0.62,0.93,1.85
			s-0.31,1.85-0.93,1.85c-4.12,0-8.75-0.1-13.9-0.31c-5.15-0.2-10.6-0.31-16.36-0.31c-5.56,0-10.96,0.11-16.21,0.31
			C774.91,1334.36,770.33,1334.46,766.42,1334.46z M794.83,1179.76c-5.36,0-9.52-1.44-12.51-4.32c-2.99-2.88-4.48-7-4.48-12.35
			c0-4.94,1.49-8.85,4.48-11.73c2.98-2.88,7.15-4.32,12.51-4.32c5.14,0,9.11,1.44,11.89,4.32c2.78,2.89,4.17,6.79,4.17,11.73
			C810.88,1174.21,805.53,1179.76,794.83,1179.76z"/>
		<path class="st1" d="M847.62,1334.46c-0.62,0-0.93-0.62-0.93-1.85s0.31-1.85,0.93-1.85c7,0,11.63-1.44,13.9-4.32
			c2.26-2.88,3.4-8.54,3.4-16.98v-58.98c0-6.59-0.72-11.42-2.16-14.51c-1.44-3.09-4.01-4.63-7.72-4.63c-1.85,0-4.12,0.42-6.79,1.23
			c-2.68,0.83-5.56,1.96-8.65,3.4c-0.83,0.21-1.5-0.26-2.01-1.39c-0.52-1.13-0.46-1.8,0.15-2.01l40.45-19.76
			c1.03-0.41,1.75-0.62,2.16-0.62c2.05,0,4.17,2.37,6.33,7.1c2.16,4.74,3.24,11.63,3.24,20.69v69.47c0,8.44,1.18,14.1,3.55,16.98
			c2.36,2.89,7.05,4.32,14.05,4.32c0.62,0,0.93,0.62,0.93,1.85s-0.31,1.85-0.93,1.85c-3.91,0-8.44-0.1-13.59-0.31
			c-5.15-0.2-10.6-0.31-16.37-0.31c-5.56,0-10.96,0.11-16.21,0.31C856.12,1334.36,851.53,1334.46,847.62,1334.46z M930.69,1334.46
			c-0.62,0-0.93-0.62-0.93-1.85s0.31-1.85,0.93-1.85c7,0,11.63-1.44,13.89-4.32c2.26-2.88,3.4-8.54,3.4-16.98v-46.32
			c0-11.53-2.11-20.02-6.33-25.47c-4.22-5.45-10.86-8.18-19.92-8.18c-6.59,0-13.33,1.8-20.22,5.4c-6.9,3.6-12.61,8.6-17.14,14.98
			l-1.54-3.71c8.03-10.91,16.52-19.4,25.47-25.47c8.96-6.07,18.58-9.11,28.87-9.11c11.53,0,20.38,3.45,26.55,10.34
			c6.18,6.9,9.26,16.21,9.26,27.94v59.59c0,8.44,1.18,14.1,3.55,16.98c2.36,2.89,7.05,4.32,14.05,4.32c0.62,0,0.93,0.62,0.93,1.85
			s-0.31,1.85-0.93,1.85c-3.91,0-8.44-0.1-13.59-0.31c-5.15-0.2-10.6-0.31-16.37-0.31c-5.56,0-10.96,0.11-16.21,0.31
			C939.18,1334.36,934.59,1334.46,930.69,1334.46z"/>
		<path class="st1" d="M1031.03,1231.33c0,4.74,1.24,8.85,3.71,12.35c2.47,3.5,5.66,6.64,9.57,9.42c3.91,2.78,8.13,5.4,12.66,7.87
			c5.14,2.89,10.14,5.87,14.98,8.95c4.83,3.09,8.9,6.85,12.2,11.27c3.29,4.43,4.94,10.14,4.94,17.14c0,6.59-1.7,12.92-5.09,18.99
			c-3.4,6.07-8.44,11.01-15.13,14.82c-6.69,3.81-15.08,5.71-25.17,5.71c-5.15,0-10.19-0.62-15.13-1.85s-10.3-3.5-16.06-6.79
			c-0.41-0.41-0.82-0.93-1.23-1.54c-0.42-0.62-0.62-1.34-0.62-2.16l-0.62-28.41c0-0.62,0.56-0.97,1.7-1.08
			c1.13-0.1,1.8,0.15,2.01,0.77c2.26,6.59,5.4,12.56,9.42,17.91c4.01,5.35,8.54,9.52,13.59,12.51c5.04,2.99,10.24,4.48,15.59,4.48
			c5.14,0,9.21-1.39,12.2-4.17c2.98-2.78,4.37-7.05,4.17-12.81c0-5.76-1.34-10.55-4.01-14.36c-2.68-3.81-6.02-7.05-10.04-9.73
			c-4.01-2.67-8.18-5.14-12.5-7.41c-4.94-2.67-9.73-5.4-14.36-8.18c-4.63-2.78-8.49-6.38-11.58-10.81
			c-3.09-4.42-4.63-10.24-4.63-17.45c0-8.44,2.11-15.18,6.33-20.22c4.22-5.04,9.73-8.75,16.52-11.12c6.79-2.36,13.79-3.55,21-3.55
			c4.32,0,8.38,0.31,12.2,0.93c3.81,0.62,7.97,1.85,12.5,3.71c1.85,0.62,2.78,1.75,2.78,3.4c0,3.91-0.11,7.93-0.31,12.04
			c-0.21,4.12-0.31,8.75-0.31,13.89c0,0.42-0.62,0.62-1.85,0.62c-1.24,0-1.85-0.2-1.85-0.62c0-4.12-1.65-8.34-4.94-12.66
			c-3.3-4.32-7.46-7.98-12.51-10.96c-5.05-2.98-10.34-4.48-15.9-4.48c-3.71,0-7,0.93-9.88,2.78
			C1032.47,1222.37,1031.03,1225.98,1031.03,1231.33z"/>
		<path class="st1" d="M1157.63,1338.16c-4.94,0-9.83-0.83-14.67-2.47c-4.84-1.65-8.85-4.42-12.04-8.34
			c-3.19-3.91-4.79-9.47-4.79-16.67v-69.78c0-4.53-0.46-8.03-1.39-10.5c-0.93-2.47-2.52-4.17-4.79-5.09
			c-2.27-0.93-5.46-1.39-9.57-1.39c-0.83,0-1.24-0.82-1.24-2.47c0-1.65,0.41-2.47,1.24-2.47c9.67-0.41,17.55-2.73,23.62-6.95
			c6.07-4.22,10.34-10.24,12.81-18.06c0.2-0.82,1.03-1.24,2.47-1.24c1.44,0,2.16,0.42,2.16,1.24v106.53
			c0,8.44,2.11,14.51,6.33,18.22c4.22,3.71,9.73,5.56,16.52,5.56c4.94,0,9.52-0.97,13.74-2.93c4.22-1.95,7.77-4.06,10.65-6.33
			c0.62-0.41,1.34-0.15,2.16,0.77c0.82,0.93,0.82,1.7,0,2.32c-7.62,7-14.77,12.1-21.46,15.28
			C1172.7,1336.57,1165.45,1338.16,1157.63,1338.16z M1191.28,1230.71c-8.24-1.85-16.21-3.14-23.93-3.86
			c-7.72-0.72-16.01-1.08-24.86-1.08v-7.41c8.44,0,16.62-0.31,24.55-0.93c7.92-0.62,16.41-1.34,25.47-2.16
			c0.41,0,0.87,0.72,1.39,2.16c0.51,1.44,0.77,3.19,0.77,5.25c0,1.85-0.36,3.71-1.08,5.56
			C1192.88,1230.09,1192.1,1230.92,1191.28,1230.71z"/>
		<path class="st1" d="M1275.27,1338.16c-12.97,0-23.98-2.78-33.04-8.34c-9.06-5.56-15.9-12.92-20.53-22.08
			c-4.63-9.16-6.95-18.88-6.95-29.18c0-12.35,2.98-23.47,8.95-33.35c5.97-9.88,14.1-17.8,24.39-23.78
			c10.29-5.97,21.92-8.95,34.89-8.95c12.14,0,21.61,2.88,28.41,8.65c6.79,5.77,10.19,14.72,10.19,26.86c0,2.68-0.21,4.84-0.62,6.48
			c-0.42,1.65-1.34,2.47-2.78,2.47h-25.32c0.62-11.94-0.77-21.31-4.17-28.1s-9.01-10.19-16.83-10.19c-9.26,0-16.52,4.27-21.77,12.81
			c-5.25,8.54-7.87,19.92-7.87,34.12c0,11.94,1.85,22.28,5.56,31.03c3.71,8.75,9.16,15.59,16.36,20.53
			c7.2,4.94,16.06,7.41,26.55,7.41c6.38,0,11.73-0.87,16.06-2.62c4.32-1.75,8.96-3.96,13.9-6.64c0.41-0.41,0.97-0.2,1.7,0.62
			c0.72,0.83,0.87,1.54,0.46,2.16c-7.41,7.21-14.98,12.35-22.69,15.44C1292.4,1336.62,1284.11,1338.16,1275.27,1338.16z
			 M1233.27,1257.27l-0.31-5.25l68.55-1.23v6.18L1233.27,1257.27z"/>
		<path class="st1" d="M1345.04,1334.46c-0.62,0-0.93-0.62-0.93-1.85s0.31-1.85,0.93-1.85c7,0,11.63-1.44,13.9-4.32
			c2.26-2.88,3.4-8.54,3.4-16.98v-58.98c0-6.59-0.72-11.42-2.16-14.51c-1.44-3.09-4.01-4.63-7.72-4.63c-1.85,0-4.12,0.42-6.79,1.23
			c-2.68,0.83-5.56,1.96-8.65,3.4c-0.83,0.21-1.5-0.26-2.01-1.39c-0.52-1.13-0.46-1.8,0.15-2.01l40.45-19.76
			c1.03-0.41,1.75-0.62,2.16-0.62c2.05,0,4.17,2.37,6.33,7.1c2.16,4.74,3.24,11.63,3.24,20.69v69.47c0,5.56,0.82,9.93,2.47,13.12
			c1.65,3.19,4.53,5.36,8.65,6.48c4.12,1.13,9.88,1.7,17.29,1.7c0.82,0,1.24,0.62,1.24,1.85s-0.42,1.85-1.24,1.85
			c-5.35,0-11.48-0.1-18.37-0.31c-6.9-0.2-14.36-0.31-22.39-0.31c-5.56,0-10.96,0.11-16.21,0.31
			C1353.54,1334.36,1348.95,1334.46,1345.04,1334.46z M1380.24,1250.78l-2.16-3.71c7.82-9.26,14.46-16.41,19.92-21.46
			c5.45-5.04,10.04-8.54,13.74-10.5c3.71-1.95,7.2-2.93,10.5-2.93c4.32,0,8.69,1.5,13.12,4.48c4.42,2.99,6.64,6.74,6.64,11.27
			c0,3.71-1.13,6.79-3.4,9.26c-2.27,2.47-5.46,3.71-9.57,3.71c-3.71,0-6.59-1.03-8.65-3.09c-2.06-2.06-4.01-4.01-5.87-5.87
			c-1.85-1.85-4.43-2.78-7.72-2.78c-1.65,0-3.4,0.46-5.25,1.39s-4.43,2.93-7.72,6.02
			C1390.54,1239.67,1386.01,1244.4,1380.24,1250.78z"/>
	</g>
</g>
</svg>
