<?xml version="1.0" encoding="utf-8"?>
<!-- Generator: Adobe Illustrator 24.3.0, SVG Export Plug-In . SVG Version: 6.00 Build 0)  -->
<svg version="1.1" id="Layer_1" xmlns="http://www.w3.org/2000/svg" xmlns:xlink="http://www.w3.org/1999/xlink" x="0px" y="0px"
	 viewBox="0 0 2000 2000" style="enable-background:new 0 0 2000 2000;" xml:space="preserve">
<style type="text/css">
	.st0{fill:#F4EBE0;}
	.st1{fill:#7F4F4C;}
	.st2{display:none;}
	.st3{display:inline;}
</style>
<rect class="st0" width="2000" height="2000"/>
<g>
	<g>
		<path class="st1" d="M912.83,574.33c1.37-0.34,3.66,1.9,4.18-1.2c0.07-0.44,0.4-0.66,0.82-0.61c0.59,0.07,0.79,0.56,0.74,1.05
			c-0.14,1.43,0.28,1.97,1.88,1.85c1.72-0.13,1.52-1.42,1.37-2.19c-0.28-1.45,0.46-1.42,1.4-1.42c0.95,0,2.89-1.3,3.25,0
			c0.53,1.89-3.38,1.89-3.66,3.43c-0.61,3.45-2.83,3.12-5.2,2.65c-1.55-0.31-4.1-1.5-4.6,0.17c-0.39,1.33,1.65,0.1,2.44,0.67
			c4.08,2.94,8.5,1.4,12.9,0.94c5.18-0.55,9.94-3.38,15.33-2.73c1.43,0.17,2.79-0.27,4.2-0.66c2.44-0.66,5.03-1.42,7.47-1.43
			c3.49-0.01,6.93-0.45,10.39-0.64c4.21-0.23,8.29-1.07,12.55,0.66c2.99,1.22,6.19,2.97,9.7,1.97c3.99-1.14,7.74-2.73,12.18-2.48
			c3.71,0.22,7.53,0.19,11.28,0.23c5.54,0.06,11.08,1.3,16.6,1.14c6.08-0.18,11.95,1.04,17.85,1.8c5.13,0.66,10.2,1.75,15.41,1.8
			c1.52,0.02,3.16,0.2,4.34,1.21c1.26,1.08,2.55,1.23,4.01,0.84c0.55-0.15,1.05-0.32,1.67-0.15c3.43,0.93,6.83,2.19,10.32,2.59
			c4.45,0.51,8.64,2.04,12.95,2.97c2.63,0.56,5.7,0.34,8.22,2.2c1.52,1.12,4.07-0.23,5.79,1.56c0.25,0.26,2.27-0.53,2.1-2.02
			c-0.1-0.9-5.37-3.42-6.33-2.95c-5.01,2.4-8.46-2.56-12.92-2.63c-0.17,0-0.33-0.45-0.5-0.68c-0.61-0.84-1.5-1.01-2.47-1.25
			c-4.41-1.07-8.8-2.24-13.16-3.47c-1.26-0.36-2.33-1.22-3.79-1.09c-5.06,0.46-9.88-1.94-14.98-1.37c-0.4,0.05-1.1-0.56-1.29-1.01
			c-0.64-1.52-2.01-1.84-3.3-1.92c-4.44-0.26-8.84-1.72-13.38-0.43c-1.25,0.36-3.07,0.83-3.97-0.72c-2.12-3.7-6.22-6.06-9.16-3.77
			c0,0,0,0,0,0c-0.65-0.94-2.53-0.79-3.43-0.08c-0.86-1.96-4.2,0.51-5.44-0.16c-3.6-1.97-7.23-0.78-10.82-1.13
			c-1-0.09-1.94-1.6-2.86-0.8c-1.56,1.37-3.24-0.36-4.58,0.39c0,0,0,0,0,0c-0.95-3.34-7.97-3.46-9.3-0.62
			c-0.34-0.16-0.75-0.04-1.11,0.06c-0.78-3-7.3-3.13-9.22-0.55c-5.06-3.67-12.28,1.57-18.44,2.19c-1.31,0.13-2.59,0.96-3.92,0.41
			c-3.05-1.25-6.98-3.51-9.46-1.36c-0.87-1.12-2.93-0.38-4.23,0.02c-1.48,0.45-5.07-0.6-4.41,1.58c-3.77-1.26-7.93-0.4-11.9-0.57
			c-0.66-0.03-1.39-0.04-1.99,0.19c-3.07,1.16-5.95,2.75-9.51,2.28c-1.41-0.19-3.06,1.16-3.54,2.62
			C911.03,572.49,911.96,574.54,912.83,574.33z"/>
		<path class="st1" d="M1449.66,1017.25c-0.58-6.39-3.96-11.73-8.87-15.64c-2.51-1.99-4.9-4.44-8.11-5.54
			c-2.64-0.91-5.99-4.87-7.99-2.5c0,0,0,0,0,0c0,0,0,0,0,0c-0.34-0.63-1.08-1.41-1.77-1.2c0,0,0,0,0,0
			c-0.96-3.09-4.57-4.35-6.39-6.91c0,0,0,0,0,0c1.12-0.35,1.25-3.77-0.23-3.5c0.12-0.52,0.5-1.24,0.09-1.58c0,0,0,0,0,0
			c3.37-3.82-1.08-10.7-4.4-9.47c-3.56,1.32-1.85,7.1-0.02,9.89c-0.57-0.27-0.55,1.44,0.01,1.15l0,0c0,0,0,0,0,0
			c0.11,1.95-0.64,3.61-2.21,4.36c-3.14,1.5-4.62,4.59-5.75,7.16c-2.43,5.53-5.51,10.91-6.38,17.05c-0.51,3.58-2.2,6.92-2,10.67
			c0.06,1.11,1.11,2.18,0.29,3.31c-2.67,3.69-3.74,10.39-0.08,11.11h0c-0.09,0.62-0.06,1.07,0.07,1.87c0,0,0,0,0,0l0,0
			c-1.72-0.04-0.19,2.75-1.44,3.86c-2.57,2.27-3.15,5.25-2.85,8.59c0.21,2.37,0.33,4.82-0.04,7.15c-0.31,1.91,0.85,4.31-0.77,5.66
			c-2.98,2.49-3.15,6.14-4.6,9.26c-1.88,4.06-1.09,8.84-3.51,12.72c-1,1.6,1.48,3.09,0.36,4.17c-1.01,0.97-3.11,0.16-4.16,1.94
			c-0.86,1.46-2.33,2.53-3.3,3.95v0c-1.09-1.38-3.13,1.37-2.96,3.29c0,0,0,0,0,0c-1.76,0.52-2.82,2.27-4.13,3.54
			c-3.6,3.49-6.83,7.41-8.55,12.04c0,0,0,0,0,0c0,0,0,0,0,0c-0.88-0.27-0.84,0.92-0.67,2.1c-0.29,1.13-0.42,2.28-0.04,3.06
			c-0.25,0.55-0.63,1.09-1.02,1.83c-3.38-1.39-5.3,4.87-5.91,8.82c-0.23,1.46-1.12,2.9-2.73,3.78c-1.82,0.99-3.09,2.55-2.57,4.9
			c0.26,1.16-0.67,1.67-1.39,1.87c-2.91,0.84-5.44,3.53-3.21,5.51c-2.08-0.3-2.4,3.3-4.02,4.71c-3.89,3.36-7.28,7.2-9.95,11.72
			c-1.26,2.13-2.06,4.45-3.39,6.49c-1.18,1.82-2.57,3.34-2.4,5.88c0.16,2.4-1.98,4.51-1.5,7.14c0.05,0.3-0.51,0.78-0.87,1.06
			c-3.47,2.64-5.77,6.38-8.84,9.36c-1.89,1.83-3.1,3.93-3.94,6.25c-1.13,3.1-1.56,6.45-3.27,9.36c-0.37,0.63-0.59,1.32-0.23,1.9
			c1.18,1.9,0.59,3.7-0.15,5.49c-1.13,2.74-1.3,5.57-1.15,8.5c0.16,3.18-0.03,6.27-1.85,9.15c-0.81,1.28-1.1,3.05-1.16,4.62
			c-0.13,3.01,0.17,6.04-1.91,8.61c-0.58,0.71-0.58,1.66,0.39,1.92c0,0,0,0,0,0c-0.85,1.3-0.72,1.99-1.17,3.08c0,0,0,0,0,0
			c-0.3-0.37-1.19-0.21-1.12,0.46c0,0,0,0,0,0c-0.07-0.02-0.18,0.1-0.17,0.12c0.04,0.13,0.03,0.36,0.16,0.36v0
			c-0.06,0.32,0.11,0.65,0.1,0.98c0,0,0,0,0,0c0,0,0,0,0,0c-0.17-0.26-0.59,0.14-0.37,0.33c0,0,0,0,0,0
			c-0.32,0.07-0.63,0.18-0.9,0.37c0,0,0,0,0,0c0,0,0,0,0,0c-0.02-0.3-0.63,0.01-0.41,0.17c0,0,0.19,0.03,0.24,0c0,0,0,0,0,0
			c0,0,0,0,0,0c-0.06,0.02-0.24,0-0.24,0c-4.13,2.1-10.54,3.47-11.16,8.02c0,0,0,0,0,0c-1.73,0.15-2.19,0.91-3.47,1.26c0,0,0,0,0,0
			c-0.43-1.78-3.35-1.6-5.3-1.2c-3.24,0.67-6.4-0.07-9.61-0.41c-4.06-0.42-8.84-1.9-12.19,0.51c0,0,0,0,0,0
			c-0.17-0.22-0.78-0.02-0.79,0.26c0,0,0,0,0,0c0,0,0,0,0,0c-0.36-0.04-1.03-0.11-1.14,0.15c-0.01-0.06-0.02-0.12-0.05-0.11
			c-0.05,0.01-0.04,0.17,0,0.21c0,0,0,0,0,0c0.01,0.01,0.05,0,0.05,0c0.07,0.18-0.33,0.21-0.4,0.4c0,0,0,0,0,0
			c-0.03-0.05-0.16-0.07-0.21-0.04c-0.05,0.03-0.04,0.21-0.04,0.21c-0.13,0-0.24,0.08-0.31,0.19c0,0,0,0,0,0
			c-0.17-0.39-1.31-0.09-1.08,0.37c-0.3,0.13-0.46,0.5-0.56,0.81c0,0,0,0,0,0v0c-0.44-0.22-1.28,0.46-1.15,0.94
			c-0.57-0.03-1.26-0.25-1.71,0.11h0c-0.36-0.72-1.59,0.08-1.34,0.79c-0.49-0.19-1.09-0.36-1.56-0.13
			c-0.17-0.54-1.39-0.01-1.09,0.47c0,0,0,0,0,0c0,0,0,0,0,0c0,0-0.08,0.04-0.1,0.05c-0.05-0.36-0.92,0.18-0.65,0.39c0,0,0,0,0,0
			c0,0,0,0-0.01,0c-0.7-1.44-5.01-0.46-4.64,1.15c0,0,0,0,0,0c-0.35,0.04-0.7,0.15-1.02,0.31c-0.14-0.45-1.15-0.52-1.41-0.12
			c0,0,0,0,0,0c0,0-0.08-0.07-0.11-0.09c2.11-2.39-2.96-2.23-3.91-1.18v0c-0.24-0.21-0.65-0.06-0.96,0.03
			c-0.05-0.38-1,0.19-0.71,0.42c0,0,0,0,0,0c-0.21,0.17-0.4,0.37-0.53,0.6c0,0,0,0,0,0c-0.66-0.56-1.76,0.5-2.35,1.14v0
			c-0.09-0.29-0.46-0.44-0.76-0.5c0.53-1.86-2.95,0.11-4.44-0.07c0.15-0.28-0.74-0.35-0.62-0.04h0c-0.19,0-0.38,0.07-0.44,0.25
			c-2.09-2.05-9.52-2.07-8.74,0.95c0,0,0,0,0,0c-3.55,0.59-9.5,0.75-9.69,4.49c-1.14,0.38-1.32,0.43-1.86,1.25c0,0,0,0,0,0
			c0.09-0.26-0.34-0.66-0.59-0.56c-0.23-0.94-1-1.76-2.16-0.89c0,0,0,0,0,0c-0.09-0.34-0.87,0.28-0.57,0.45l-0.06,0.05
			c-0.84-1.36-5-1.37-4.75,0.4c-0.58,0.04-1.39,0.16-1.61,0.7c-1.83-0.35-4.01,1.73-5.6,2.79c-0.33-0.08-0.69-0.13-1.1-0.13
			c-0.91-1.08-1.5-1.58-0.99,0.05h0c-0.17,0.03-0.41-0.03-0.47,0.13c0,0,0,0,0,0c-1.96-1.03-4.14,1.7-5.27,3.47
			c-0.27-0.25-0.74,0.07-1.08,0.2l0,0c0,0,0,0,0,0c-0.11-0.18-0.66,0.15-0.55,0.33c0,0,0,0,0,0c-3.1,1.91-7.54,2.58-9.29,5.78
			c-0.69-0.48-1.98,0.6-1.93,1.44c0,0,0,0,0,0c-4.33-0.09-7.04,4.48-11.01,5.89c-2.14,0.76-5.96,1.17-5.61,3.57c0,0,0,0,0,0
			c-0.95,0.08-2.28,1.39-1.77,2.27c-1.16-1.26-0.48,3-2.45,3.04c-2.79,0.05-7.11,0.98-6.64,3.43c0,0,0,0,0,0
			c-0.8,0.26-2.14,0.43-1.95,1.57c0,0,0,0,0,0c-0.42-0.07-0.67,0.55-0.92,0.9c0,0,0,0,0,0c0,0,0,0,0,0
			c-0.05-0.07-0.24,0.02-0.24,0.05c-0.02,0.15-0.14,0.42,0.01,0.45c0,0,0,0,0,0c-0.41,0.49-1.34,0.52-1.55,1.12c0,0,0,0,0,0
			c-5.68-2.59-15.71,6.37-13.09,12.16c0.19,0.42,0.26,0.73,0.27,0.96c-0.06-0.22-0.15-0.52-0.28-0.96c0,0-0.12,0.12-0.17,0.16
			c0,0,0,0,0,0c-0.13-0.15-0.6,0.24-0.47,0.4c-0.69,0.73-1.44,1.48-1.83,2.41v0c0,0,0,0,0,0c-1.72-0.57-2.26,2.58-3.57,3.85v0
			c0,0,0,0,0,0c-0.22-0.14-0.64,0.5-0.43,0.65c0,0,0,0,0,0l-0.07,0.07c0,0,0,0,0,0c-1.2-0.59-2.32,1.48-2.4,2.73v0c0,0,0,0,0,0
			c-4.08,0.07-4.99,6.4-6.98,9.77c-1.62,2.74-3.58,5-5.76,7.03c-3.17,2.94-10.58,6.23-8.18,9.8c-1.22,0.24-2.36,1.05-2.18,2.23
			c0,0,0,0,0,0c0,0,0,0,0,0c-0.29-0.17-0.67-0.07-1-0.07c0.14-0.37-0.98-0.29-0.79,0.05c0,0,0,0,0,0c0,0,0,0,0,0
			c-0.65,0.23-1.89,0.55-1.68,1.21c-2.58,0.65-4.8,2.37-6.97,3.88c-2.36,1.64-8,3.17-6.35,5.92c-1.61-0.61-3.94-0.66-5.09,0.72
			c-1.77-2.54-8.06-1.17-8.72,1.74c-1.9-1.01-3.83-0.23-5.55,0.54c-4.99,2.24-9.61,1.72-14.06-1.34c-2.32-1.59-5.19-1.32-7.69-1.39
			c-1.16-0.03-2.13,0.44-3.18-0.52c-0.46-0.42-1.2-0.55-1.82-0.79c-4.42-1.76-9.44-3.97-13.74-2.22c-0.15-0.27-0.82-0.22-0.93,0.07
			c0,0,0,0,0,0c0,0,0,0,0,0c-0.48-0.22-1.05-0.12-1.58-0.15c0,0,0,0,0,0c0.11-0.26-0.33-0.73-0.59-0.61
			c0.16-0.22-0.49-0.73-0.66-0.51c0,0,0,0,0,0c-3.05-1.58-6.44-3.26-10.07-0.96c-0.28,0.18-0.91-0.1-1.33-0.27
			c-1.38-0.54-2.82-1-4.11-1.72c-2.64-1.48-6.02-2.46-8.08-0.51c-0.58-0.59-1.58-0.33-2.24,0.2c-0.22-0.76-2.73-0.57-2.2,0.36
			l-0.08,0.04c-1.07-0.75-2.67,1.12-3.78,0.83c-4-1.06-8.48,0.11-9.28,3.41c-1.63-0.74-4.4,0.16-4.93,1.99
			c-0.55-0.23-1.15-0.18-1.61,0.28c-2.52,2.49-6.63,2.86-8.72,5.64c0,0,0,0,0,0c-0.17-0.06-0.41,0.34-0.28,0.46c0,0,0,0,0,0
			c-0.15,0.17-0.25,0.39-0.32,0.6c0,0,0,0,0,0c-0.23-0.13-0.62,0.25-0.61,0.52c-1.49-0.66-3.59-0.8-4.6,0.54
			c0.32-1.12-3.33-1.19-3-0.04c0,0,0,0,0,0l0,0c-3.18,0.16-7.15,0.01-9.11,2.49c0,0,0,0,0,0c-1.08-0.93-4.54-0.47-4.11,1.04
			c-3.35,0.85-6.8-0.36-9.22,1.84c-1.07-2-4.84-0.76-4.68,0.99c-0.36-0.07-0.73,0.04-1.1,0.07c0.16-0.37-0.42-1.34-0.82-0.87
			c0,0,0,0,0,0c0,0,0,0,0,0c-0.06-0.13-0.19-0.23-0.32-0.28h0c0.24-4.83-9.34-0.18-13.38,2.72c-0.99,0.71-1.72,1.47-3.21,1.38
			c-3.43-0.22-6.98-3.11-10.07-1.66c-0.24-1.69-2.4-0.23-3.94-0.76h0c0.32-0.94-1.93-1.1-2.41-0.43c-2.73-2.99-5.67-2.15-6.29,0.48
			c-0.26-0.24-0.71-0.01-1.07-0.01c0.48-0.56-0.09-1.98-0.77-1.94c-2.57,0.16-7.38-3.85-7.43-0.95c0,0,0,0,0,0
			c-1.47-0.77-3.71-1.78-4.52-0.38c0,0,0,0,0,0c0,0,0,0,0,0c-1.38-1.4-3.81-1.4-5.72-1.4c-3.11-0.02-5.98-1.31-8.66-2.19
			c-3.32-1.09-6.92-5.9-9.99-4.02c-0.22-1.01-1.3-1.58-2.23-1.86c0.28-1.18-2.08-1.32-3.2-1.75c-2.18-0.84-4.74-3.79-6.69-2.14
			c-0.03-0.8-0.85-1.62-1.59-1.32c0,0,0,0,0,0c-0.49-2.56-5.23-6.13-7.01-3.34c0,0,0,0,0,0c-1.58-1.19-3.95-3.43-5.21-1.75
			c-0.15-0.14-0.43-0.14-0.6-0.04v0c0,0,0,0,0,0c-1.31-1.92-4.27-2.37-6.38-1.7c0,0,0,0,0,0c0,0,0,0,0,0
			c-0.27-1.2-2.16-1.79-3.42-1.1l0,0c-0.18-0.52-1.12-0.22-1.66-0.11c0,0,0,0,0,0c0,0,0,0,0,0c0.17-0.32,0.1-0.82-0.15-1.08
			c0.71-2.1-4.58-2.63-6.27-1.32c0,0,0,0,0,0c-0.6-0.85-2.08-1.57-2.95-1c0,0,0,0,0,0c-0.89-2.32-4.15-3.13-5.6-4.83
			c-2.58-3.03-6.23-4.43-8.87-7.19c-0.48-0.5-1.56-0.24-2.51-0.85c-0.01-0.02-0.02-0.04-0.04-0.06c0.73-2.1-1.28-4-3.05-5.27
			c-2.21-1.59-3.22-5.03-5.94-5.49c-0.58-5.25-10.06-10.61-14.27-6.82c0,0,0,0,0,0c0,0,0,0,0,0c-0.26-0.32-0.9-0.43-1.23-0.19
			c0,0,0,0,0,0v0c0.02-0.75,0.18-1.67-0.6-2.11c-5.78-3.22-11.75-5.97-18.58-4.7c-2.86,0.54-5.72,1.05-8.51,0.59
			c-3.4-0.56-6.47,1.1-5.46,3.87c0,0,0,0,0,0c0,0,0,0,0,0c-3.3-0.93-5.5-2.71-9.11-2.8c0,0,0,0,0,0c0,0,0,0,0,0
			c0.29-0.76,0.18-1.73-0.59-2.33c0,0,0,0,0,0c0,0,0,0,0,0c1.97-0.89-0.85-4.4-2.7-4.22c0.56-2.25-1.22-4.59-3.07-6.2c0,0,0,0,0,0
			c1.32-0.38,0.01-2.41,0.71-3.98v0c0.92,0.46,0.72-2.08-0.01-1.81c0,0,0,0,0,0c0,0,0,0,0,0c-0.01-0.56-0.23-1.15-0.06-1.69
			c0,0,0,0,0,0c0,0,0,0,0,0c0.22,0.16,0.71-0.49,0.49-0.66c0,0,0,0,0,0c0.26-0.53,0.11-1.69-0.48-1.39
			c0.72-3.61,1.05-7.64-1.29-10.2c1.05-0.78-0.12-2.63-0.35-3.91c-0.82-4.74-5.61-8.44-10.45-8.37c-1.38,0.02-2.96-0.05-4.15-0.81
			c0.23-0.17-0.27-0.84-0.5-0.68c0,0,0,0,0,0c-1.23-2.19-3.04-5.53-5.16-3.96c-2.1-2.87-5.59-3.33-8.64-4.62
			c-1.19-0.5-2.11-1.16-3.04-0.4c0,0,0,0,0,0c0.11-1.01-1.17-1.33-2.06-1.47c1.85-2.39-2.59-5.67-5.34-6.35c0,0,0,0,0,0
			c0.15-0.52-0.71-0.85-1.18-1.1c1.81-2.08-2.89-6.8-5.21-5.63c0,0,0,0,0,0c0,0,0,0,0,0c-0.11-0.63-0.74-0.84-1.24-0.64
			c0.67-2.31-2.42-3.98-3.52-5.93c-3.25-5.81-7.28-16.07-13.15-13.73c-0.07,0.03-0.1,0.06-0.16,0.09c0.03-0.02,0.05-0.04,0.08-0.07
			c0.03,0,0.05-0.01,0.08-0.02c0,0,0.03-0.05,0.02-0.07c0,0,0,0,0,0c1.26-1.79-1.66-4.87-4.07-4.61c0,0,0,0,0,0c0,0,0,0,0,0
			c1.79-1.6,0.6-4.48-1.16-4.61c0.17-0.54-0.09-1.19-0.37-1.65c-3-4.8-6.02-9.6-9.12-14.34c-0.55-0.84-2.02-2.44-2.64-1.33
			c0,0,0,0,0,0c-0.38-0.91-1.18-1.2-2.14-1.13c-1.96,0.16-2.95-1.1-3.75-2.59c-0.4-0.75-0.56-1.69-1.1-2.31
			c-2.71-3.08-4.55-6.35-2.2-10.41c1.7-2.93,4.52-5.88,2.59-9.45c-1.42-2.61-4.47-0.79-6.01-2.51c-1.59-1.78-2.12-4.57-4.28-5.7
			c2.86-2.02-1.95-6.94-5.09-5.14c0,0,0,0,0,0c-0.04-1.44-2.81-1.15-3.1-2.81c-0.44-2.44-3.42,0.17-5.1-2.79
			c-0.94-1.66,2.44-1.71,2.48-3.14c0.11-3.94-2.13-7.14-3.2-10.67c-0.51-1.69-1.52-3.26-1.43-5.11c0.08-1.67-0.38-2.98-1.71-4.04
			c-1.15-0.93-1.69-2.03-0.73-3.5c1.47-2.27,1.33-5.37-0.75-7.08c-2.62-2.15-3.52-5.05-4.57-8.01c-1.55-4.37-1.93-9.06-4.07-13.31
			c-0.68-1.34-1.52-3.07-1.28-5.07c0.69-5.88-2.31-11.26-2.84-17.01c-0.04-0.41-0.29-0.99-0.89-0.99c-0.72,0-0.94,0.57-1.02,1.16
			c-0.09,0.66-0.01,1.38-0.22,1.99c-0.23,0.67-0.92,1.06-1.61,0.98c-0.77-0.09-1.06-0.62-0.89-1.47c0.33-1.64-0.02-2.46-1.86-1.39
			c-0.52,0.3-0.87-0.02-1.09-0.8c-0.59-2.09-0.36-4.79-3.44-5.38c-0.77-0.15-0.76-1.01-0.76-1.7c0-1.54,0-3.07,0-4.6
			c0.87-0.31,1.26,1.71,2.11,0.44c0.48-0.71,0.02-1.46-0.8-1.86c-1.05-0.51-1.64-1.12-0.37-2.06c0.61-0.45,0.74-0.95-0.13-1.17
			c-0.57-0.14-1.64-0.9-1.73-0.06c-0.25,2.45-2.22,4.4-1.65,7.1c0.99,4.72,2.38,9.37,2.72,14.22c0.07,0.9,0.45,2.06,1.11,2.59
			c3.38,2.73,1.89,6.55,2.27,9.89c0.22,1.95-0.37,4.05,0.58,5.91c2.5,4.89,3.3,10.3,4.33,15.53c0.93,4.69,3.97,8.52,4.39,13.42
			c0.26,2.96,2.31,5.73,1.9,9.03c-0.14,1.09-0.08,2.79,0.59,3.29c3.38,2.54,2.28,6.97,4.51,9.91c1.28,1.68,0.82,4.17,2.64,5.59
			c0.07,1.89,1.26,2.88,2.86,3.54c0.74-0.93,1.2-1.52,1.34-1.91c-0.13,0.39-0.6,0.98-1.34,1.91c0.37,1.28,0.83,2.54,1.09,3.85
			c0.26,1.26,0.48,2.81,1.93,2.77c1.28-0.04,2.37-1.21,2.75-2.59c0.62-2.24-0.83-6.6,1.77-7.07c1.7-0.31,2.43,1.95,2.44,3.72
			c0.01,1.38,1.3,0.94,1.66,0.36c0,0,0,0,0,0c0,0,0,0,0,0c1.27,1.35,2.6,2.08,4.06,2.93c0,0,0,0,0,0c-0.78,0.51,0.31,1.53,0.88,2.27
			c1.38,1.78,2.58,3.61,3.2,5.95c0.81,3.03-1.03,5.08-2.07,7.3c-0.57,1.21-2.24,4.96-3.72,3.48c-1.03-1.03,0.91-2.3,1.32-3.23
			c0.38-0.86-0.05-1.72-0.79-1.34c0.29-1.28,0.71-3.41-2.14-2.56c-0.62,0.19-0.72-0.5-0.55-0.97c0.75-2.08-0.38-4.21-2.53-2.85
			c0,0,0,0,0,0c-0.04-0.25-0.29-0.47-0.53-0.56v0c0.38-1.36,0.32-2.27-0.36-2.8c-0.92-0.73-2.28-0.89-3.54-0.58
			c-0.55,0.14-0.76,0.57-0.64,1.08c0.28,1.24,1.13,1.94,2.32,2.23c0.45,0.11,0.93,0.16,1.41,0.15c-1.85,1.53,0.14,4.47,0.45,6.7
			c0.81,5.73,5.33,9.5,7.55,14.49c1.39,3.12,2.45,7.11,5.47,8.8c-0.78,1.68,0.72,4.77,3.07,4.6c-0.97,1.41,0.11,3.42,1.41,4.49
			c3.13,2.58,4.34,6.47,6.71,9.58c4.5,5.89,8.65,12.2,11.82,19.03c0.35,0.76,0.89,1.63,1.58,1.99c3.4,1.77,4.28,8.73,7.77,7.69v0
			c0.06,1.09,0.47,2.28,1.28,3.01c-2.1,1.56,3,5.83,3.89,3.18c0.55,0.72,0.74,1.3,1.18,2.41c-0.9-0.09-1.4,0.98-0.93,1.76
			c1.92,3.13,2.79,7.23,5.96,9.21c4.27,2.66,7.67,6.37,10.34,10.13c3.27,4.61,7.48,8.1,11.19,12.13c1.91,2.08,3.48,6.82,6.45,5.93
			c0,0,0,0,0,0v0c0,0,0.17,0.07,0.23,0.1c-0.27,0.13,0.22,0.63,0.36,0.36c0.04,0.1,0.1,0.17,0.16,0.27c-0.5-0.01-0.09,1.48,0.34,1.2
			c0.28,0.47,0.64,1,1.16,1.14c-1.11,4.96,5.07,11.81,10.21,11.11c-0.06,1.9,1.77,3.69,3.48,4.53c0,0,0,0,0,0c0,0,0,0,0,0
			c-0.22,0.3,0.3,0.7,0.73,0.58c0.16-0.05,0.47-0.38,0.35-0.58c0,0-0.01,0-0.01-0.01c0,0,0.01,0,0.01,0
			c0.31,0.44,0.13,1.01,0.53,0.72c0,0,0,0,0,0c0.32,1.07,1.59,1.67,2.63,2.12c-0.52,0.95,2.5,1.24,2.4,0.33
			c0.51,0.08,1.26,0.68,1.55,0.36c-0.43,0.56,0.06,1.84,0.45,2.05c3.08,1.68,3.87,7.99,7.16,7.06c0,0,0,0,0,0
			c0.05,0.3,0.37,0.52,0.65,0.64c0,0,0,0,0,0c-0.23,0.25-0.04,0.7,0.09,1.01c0,0,0,0,0,0c-0.19,0.17,0.3,0.73,0.5,0.57v0
			c0.85,0.73,1.81,2.27,2.83,1.8c0.03,1.69,1.51,2.88,2.91,3.02c-1.54,1.11-0.34,2.41,0.72,2.96c3.1,1.62,5.13,4.55,8.11,6.29
			c3.81,2.23,8.05,3.9,10.43,8.01c0.13,0.23,0.45,0.34,0.66,0.54c2.77,2.63,6.42,4.09,9.1,6.85c0.35,0.36,1.05,0.55,1.59,0.54
			c2.51-0.07,4.79,0.42,6.93,1.88c1.21,0.83,2.84,2.61,4.11,1.81c0,0,0,0,0,0c0.01,0,0.09-0.05,0.13-0.06h0c0,0,0,0,0,0
			c-0.31,0.61,1.09,1.3,1.5,0.83c0,0,0,0,0,0c0.41,0.85,1.52,1.38,2.28,0.92c0.06,1.72,2.43,2.21,3.95,2.32
			c-0.77,1.62,2.15,2.59,3.57,2.28v0c1.51,3.3,6.92,7.2,9.82,4.63c0.16,0.86,0.87,1.53,1.7,1.75c-1.1,3.21,6.92,1.57,8.67,5.27
			c0.34,0.71,1.36,0.54,2.11,0.52c0,0,0,0,0,0c-1,1.93,2.94,3.74,4.89,3.39c0.25,2.72,4.31,2.71,6.93,4.06
			c-0.39,0.51,0.54,1.21,1.16,1.2c-1.57,2.84,3.28,4.43,5.77,5.16c-0.84,2.29,4.29,1.83,6.35,3.07c2.73,1.65,4.87,5.82,9.13,2.98
			c0.11-0.07,0.36,0.05,0.54,0.1c4.63,1.36,9.31,1.96,14.14,1.31c1.5-0.2,2.88,0.18,4.37,0.93c3.23,1.61,6.49,7.09,9.84,4.56
			c0,0,0,0,0,0c0.23,1,1.31,1.71,2.26,2.08c-1.04,1.29,1.47,2.75,2.95,3c0,0,0,0,0,0c-0.26,0.62,0.68,1.85,1.29,1.57
			c0.84,1.16,2.47,1.62,3.82,1.95c3.82,0.92,9.32,5.55,11.62,1.99c0,0,0,0,0,0c0.72,0.46,2.04,0.14,2.51-0.58c0,0,0,0,0,0
			c0,0,0,0,0,0c0.11,0.15,0.35,0.17,0.53,0.13c0,0,0,0,0,0c0.18,2.06,3.93,0.49,5.95,0.16c1.97-0.33,3.93-0.95,5.97-0.55
			c4.43,0.86,9.27,2.86,13.39,1.01c0.33,0.53,1.59,0.46,1.87-0.1c3.35,2.32,8.11,0.33,12.07,1.7c1.91,0.66,4.2,1.9,6.28,0.47
			c0,0,0,0,0,0c0.1,0.39,0.93,0.56,1.18,0.24c3.74,4.68,10.18,3.21,15.52,3.78c0.1,0.01,0.44-0.25,0.36-0.41c0,0,0,0,0,0
			c0.05-0.01,0.16-0.07,0.19-0.12c0,0,0,0,0,0c0,0,0,0,0,0c0.39,0.49,1.44,0.64,1.87,0.18c0.27,0.38,0.88,0.7,1.23,0.63
			c5.02-1.06,9.79,3,14.49,1.58c0,0,0,0,0,0c-0.01,2.76,6.44,2.92,7.36,0.63c0,0,0,0,0,0c2.85,0.62,6.82,1.94,8.64-0.43
			c0.57,0.99,1.54,0.83,2.52,0.9c1.77,0.13,3.4-0.76,5.18-0.42c4.93,0.96,10.3,1.91,14.8-0.13c0.32,0.96,2.05,0.7,2.97,0.1
			c0,0,0,0,0,0c1.02,1.65,3.42,1.09,5.23,0.42c4.8-1.77,9.73-2.24,14.82-1.69c2.92,0.32,6.13,1.3,8.74-0.26
			c4-2.38,8.48-1.22,12.57-2.47c0.08-0.02,0.19,0.05,0.28,0.05c3.42-0.03,7.86,2.32,10.26-0.11c2.17,1.73,8.67,1.22,8.16-1.62
			c0,0,0,0,0,0c1.36,0,3.03-0.35,3.43-1.74v0c1.56,1.08,6.28,1.34,5.56-0.7c0.84-0.1,1.58-0.22,2.48,0.1
			c2.84,1.02,5.83,1.15,8.71,0.32c5.9-1.71,15.82,0.42,17.58-5.57c0,0,0,0,0,0c2.46,0.83,5.76-0.89,7.17-3.08c0,0,0,0,0,0
			c0,0,0,0,0,0c0.19,0.25,0.6,0.07,0.69-0.29c0,0,0,0,0,0c0.19,0.3,0.69,0.35,1.04,0.28v0c0.12,0.93,2.65,0.49,2.35-0.4
			c1.42-0.33,2.75-0.66,4.09-0.97c3.95-0.92,7.84-1.67,11.55-3.59c1.16,1.22,4.07-0.02,4.61-1.72c0,0,0,0,0,0
			c0.19,0.04,0.41,0.01,0.58-0.09c0.33,0.51,1.77,0.13,1.76-0.47l0,0c2.06-0.09,3.93-1.37,5.84-1.96c2.35-0.73,4.58-1.87,7.04-2.46
			c2.41-0.57,6.39,1.42,7.27-1.46c0,0,0,0,0,0c0.75,0.42,2.46-0.22,2.34-1.07c0,0,0,0,0,0l0,0c2.98-0.13,4.39-3.18,7.47-4.29
			c0,0,0,0,0,0c0.05,0.06,0.13-0.03,0.2-0.14c0.03-0.03,0.07-0.05,0.1-0.08c0.13-0.05,0.24-0.1,0.18-0.17c0,0,0,0,0,0
			c0.02-0.01,0.08-0.06,0.08-0.06s0,0,0,0c0,0,0,0,0,0c0.67,0.53,2.54,0.03,2.37-0.85c0,0,0,0,0,0c0,0,0,0,0,0
			c2.95,0.21,8.95,0.45,8.22-3.03c0.06,0.02,0.19,0.05,0.26,0.04c0.07-0.01,0.24-0.1,0.24-0.1c3.52,2.1,8.07-1.93,11.45-4.29
			c0.13,0.15,0.59-0.24,0.46-0.39c2.14-1.4,4.62-2.22,6.93-3.32c8.9-4.22,15.83-11.53,24.79-15.7c5.52-2.58,8.86-8.5,15.06-10.17
			c0.15-0.04,0.26-0.28,0.37-0.44c1.45-2.1,4.05-2.87,5.59-4.91c1.56-2.08,4.56-2.45,6.01-4.58c1.12-1.64,2.49-2.46,4.27-3.11
			c7.64-2.79,21.19-5.9,19.27-13.64c1.93,1.95,4.24-2.25,5.97-4.2c2.38-2.68,3.56-6.21,6.43-8.47c3.14-2.47,6.37-4.84,7.87-8.79
			c0.31-0.83,1.33-0.67,1.91-1.07c1.46-1.01,4.08-0.55,4.59-2.23c1.39-4.57,6.78-6.33,7.5-11.26c0.04-0.28,0.9-0.36,1.12-0.7
			c1.26-1.93,4.04-1.21,5.28-3.15c1.83-2.86,4.65-5.05,5.6-8.52c0.27-0.98,0.87-2.03,2.19-1.91c2.62,0.26,3.77-1.39,4.03-3.51
			c0,0,0,0,0,0c0.6,0.07,0.93-1.41,0.44-1.77c0.02-0.02,0.07-0.06,0.09-0.09c0,0,0,0,0,0c0.3,0.23,1.06-0.18,1-0.56c0,0,0,0,0,0
			l0.14-0.1c0,0,0-0.01,0-0.01c0,0,0,0.01,0,0.01c0.13,0.17,0.65-0.23,0.51-0.4c0,0,0,0,0,0c2.9-2.52,4.98-5.84,7.63-8.62
			c3.17-3.33,5.61-7.7,8.47-11.56c1.11-1.5,1.99-3.25,3.49-4.37c1.6-1.19,2.75-2.49,3.26-4.47c0.47-1.82,1.23-3.86,3.23-4.28
			c2.98-0.63,4.25-3.24,5.53-5.13c2.78-4.1,4.72-8.76,7.68-12.82c0.63-0.87,1.11-2.05,1.67-2.83c1.98-2.74,3.15-5.89,4.95-8.72
			c1.39-2.18,3.2-4.47,3.26-7.1c0.12-4.75,0.47-9.15,5.32-11.66c0.28-0.14,0.46-0.61,0.56-0.96c1.79-6,5.74-10.86,8.61-16.29
			c1.28-2.42,3.04-4.77,2.39-7.87c-0.25-1.2,0.51-2.22,1.68-2.28c1.87-0.09,1.76-1.15,1.84-2.51c0.17-2.83,0.05-5.83,0.99-8.42
			c1.27-3.5,3.56-6.59,4.26-10.42c0.47-2.59,0.37-4.11,0.56-7.74c0.17-3.22,0.76-5.72,2.6-8.12c0.54-0.71,0.83-1.59,0.65-2.45
			c-0.4-1.88,0.62-2.6,2.17-3.08c0.86-0.27,2.06-0.3,1.96-1.68c-0.14-1.8-0.02-3.71-0.61-5.36c-0.54-1.48-0.1-2.92,0.72-3.28
			c3.02-1.33,2.46-4.18,3.22-6.47c0.29-0.88,0.68-1.71,1.05-2.54c1.19-2.7,4.32-4.82,2.59-8.54c-1.15-2.48-0.81-5.03,0.83-7.34
			c0.54-0.75-0.15-1.37-0.39-2.08c-0.38-1.13-1.17-2.58,0.75-3.31c2.7-1.02,4.41-3.45,3.21-5.8c0,0,0,0,0,0c0,0,0,0,0,0
			c0.85-0.3-0.39-1.43-0.95-1.89c-1.06-0.85,0.68-1.22,0.33-1.74c0,0,0.11-0.09,0.14-0.12c0.27,0.37,1.19-0.79,0.67-0.91
			c0,0,0,0,0,0c2.34-4.59,1.5-9.98,1.2-14.99c1.03,0.05,2.05-1.44,1.68-2.35c0.37-0.19,0.55-0.62,0.75-0.98c0,0,0,0,0,0
			c0.26,0.22,0.67-0.76,0.3-0.76c0.07-0.17,0.1-0.37,0.01-0.53c0.45-0.08,0.75-0.96,0.45-1.3c0,0,0.12-0.11,0.16-0.15c0,0,0,0,0,0
			c0.13,0.17,0.63-0.21,0.51-0.38c0.89-0.67,1.49-1.56,1.6-2.63c0.39-3.78,3.38-6.16,5.68-8.3c3.23-3.02,6.89-5.67,10.23-8.67
			c1.17-1.05,2.19-2.52,3.87-2.97C1445.52,1030.75,1450.33,1024.58,1449.66,1017.25z"/>
		<path class="st1" d="M667.43,718.78c4.08,1.68,13.27,2.37,15.41-2.62c1.45,0.89,1.98-2.41,2.62-3.81
			c0.42-0.93-0.06-1.23-0.83-2.49c0,0,0,0,0,0c0.65,0.04,0.24-0.34-0.36-0.9c0.7-1.36,3.34-3.92,1.95-5.41
			c0.46-0.2-0.1-1.24-0.51-1.05c0-0.02-0.03-0.08-0.03-0.08c1.17-1.25,1.16-4.78-0.52-5.11v0c0,0,0,0,0,0
			c0.07-2.7-2.73-4.54-5.79-3.74c-2.65,0.69-5.37,1.8-6.25,4.77c0,0,0,0,0,0c-0.19-0.04-0.32,0.54-0.13,0.58c0,0,0,0,0,0
			c-0.11,0.21-0.27,0.62-0.47,0.52c0.26,0.49-0.87,1.16-0.65,1.66c-0.23-0.25-1.07,0.41-0.8,0.65c-0.66,0.24-2.14-0.05-1.92,0.65
			c0,0,0,0,0,0c-4.12,1.45-3.91,7.31-4.7,11.36C664.01,715.97,665.59,718.02,667.43,718.78z"/>
		<path class="st1" d="M888.46,577.58c0.45,0.03,0.92-0.32,1.39-0.32c2.15-0.02,4.21-0.27,6.04-1.56c0.75-0.53,1.61-0.49,2.48-0.16
			c2.64,1.01,4.47-0.27,5.76-2.35c0.61-1,0.83-1.27,1.85-0.5c1.01,0.76,3.83-0.92,3.89-2.19c0.03-0.59-0.35-1.09-0.81-0.88
			c-2.24,1.01-5.19-0.47-6.98,1.9c-0.65,0.85-1.21,0.56-1.99,0.35c-1.27-0.34-2.61,0.24-3.53,0.97c-2.03,1.62-4.26,2.02-6.72,1.89
			c-0.56-0.03-1.18,0.02-1.69,0.24c-1.38,0.6-2.89,1.65-2.21,3.17C886.67,579.77,887.5,577.51,888.46,577.58z"/>
		<path class="st1" d="M720.86,664.02c0.26-0.1,0.59-0.17,0.73-0.42c0.44,0.45,1.61,0.24,1.76-0.48c0,0,0,0,0,0
			c0.56,0.54,1.24-0.31,1.69-0.74c0,0,0,0,0,0c0.16,0.28,0.74-0.45,0.42-0.54c0,0,0,0,0,0c0,0,0,0,0,0c4.59-4,10.48-5.78,16.94-6.16
			c4.28-0.25,8.64-2.2,11.44-6.17c1.55-2.19,2.42-4.76,2.57-7.24c0.15-2.51,0.64-6.08-1.96-7.47c0.32-0.49-1.38-0.84-1.24-0.23
			c-0.33-0.01-0.9-0.19-0.99,0.13c0,0,0,0,0,0c-0.42-0.37-1.11-0.59-1.26-0.11c-1.53-2.34-3.26-0.74-3.85,0.91
			c-3.48-1.56-9.23,2.28-9.37,6.16c-1.12,0-2.18,0.67-3.13,1.24c-0.96,0.58-4.12,0.68-2.73,2.12c-0.28-0.16-0.83-0.06-0.95,0.23
			c-1.38-0.97-2.67-0.07-3.56,1.37c0,0,0,0,0,0c-0.24-0.29-0.96,0.6-0.64,0.79c-0.14-0.05-0.33,0.07-0.46,0.15c0,0,0,0,0,0
			c-0.17-0.17-0.69,0.36-0.52,0.52c0,0,0,0,0,0c0,0,0,0,0,0c-3.59,2.89-7.29,5.9-7.59,10.37c-0.44-0.13-0.8,1.02-0.33,1.15
			c-0.22,0.3-0.31,0.68-0.47,1.02c-0.57,1.26-0.83,2.73,0.09,3.7C718.43,665.36,719.74,664.44,720.86,664.02z"/>
		<path class="st1" d="M561.55,1081.63c1.76-0.26,3.04-3.62,1.96-6.04c-0.71-1.59-0.85-2.82,0.34-4.16
			c0.57-0.66,0.76-1.54,0.63-2.31c-0.06-0.97,0.14-1.91-0.77-2.46c-0.64-0.39-1.08,0.06-1.48,0.48c-0.71,0.74-0.79,1.44,0.06,2.2
			c0.74,0.66,0.18,1.41-0.05,2.11c-0.58,1.74-1.05,3.49-0.32,5.31c0.44,1.11-0.02,1.63-1.16,1.66c-1.05,0.03-2.19,0.37-1.83,1.56
			C559.21,1080.95,560.14,1081.84,561.55,1081.63z"/>
		<path class="st1" d="M1301.57,712.22C1301.57,712.22,1301.57,712.22,1301.57,712.22L1301.57,712.22
			c-1.54,3.07,3.61,5.56,5.69,8.14c2.23,2.77,4.7,5.35,3.32,9.53c-0.56,1.68,0.67,4.05,1.97,4.44c3.51,1.06,6.36,5.3,9.84,4.43
			c0.54,1.52,1.78,2.98,3.36,2.54c1.66-0.46,0.99-2.67,1.62-3.99c0.04-0.09,0.11-0.16,0.15-0.24c1.14-2.27,1.37-4.38-0.35-6.6
			c-1.08-1.4-1.61-3.22-2.48-4.8c-0.74-1.34-2.43-4.12-3.42-2.64c-0.16-0.73-0.52-1.32-1.12-1.08c-0.05-0.2-0.42-0.36-0.58-0.24
			c0,0,0,0,0,0c-0.03-0.17-0.14-0.32-0.32-0.34c1.76-3.13-5.89-8.5-7.8-5.77c-1.3-0.88-1.67-3.05-3.35-2.89
			c0.45-2.32-1.91-4.51-4.79-5.29c-2.01-0.54-4.73-0.15-4.85,1.5C1298.32,710.79,1299.55,712.44,1301.57,712.22z"/>
		<path class="st1" d="M872.91,580.02c0.42-0.68,1.1-1.62,1.73-1.11c2.65,2.14,4.95,1.83,7.18-0.55c0.06-0.06,0.34,0.11,0.53,0.15
			c0.99,0.23,1.58-0.29,1.5-1.17c-0.1-1.09-0.93-0.56-1.55-0.44c-2.44,0.5-4.67,1.12-7.03,0.64c-1.59-0.32-2.97-0.24-3.88,0.85
			c-0.6,0.71-2.28,1.28-1.38,2.34C870.73,581.58,872.18,581.21,872.91,580.02z"/>
		<path class="st1" d="M566.17,906.83v-0.03l-0.06,0.03c-0.03,0.66-0.09,1.32-0.11,1.98c-0.03,1.17-0.32,2.35-1.43,2.89
			c-0.86,0.4-1.69-0.23-2.32-0.75c-1.23-1.06-0.11-2.06,0.23-3.04c-0.29-1.15,1.06-1.61,1.09-2.61c0.95-0.11,1.86-0.23,2.78-0.32
			c0.06,0.2,0.09,0.4,0.11,0.63C566.86,906.15,566.71,906.52,566.17,906.83z"/>
		<path class="st1" d="M864.65,583.96c1.33-0.03,2.28-1.73,3.94-0.75c0.54,0.32,0.84-0.49,0.57-1.15c-0.47-1.13-1.41-1.01-2.59-1.02
			c-0.9-0.01-1.91,0.07-2.86,0.64c-0.82,0.49-1.38,1.18-1.02,2.12C863.15,584.98,863.99,583.98,864.65,583.96z"/>
		<path class="st1" d="M1246.73,662.02c0.63,2.98,2.66,5.99,5.66,6.85c-2.93,3.22,2.45,8.41,1.98,12.9
			c-0.11,1.07,1.02,1.77,1.73,2.53c1.55,1.66,3.89,1.94,5.63,3.13c2.08,1.43,2.66,0.16,1.88-1.13c0,0,0,0,0,0l0,0
			c1.75,0.09,2.51,1.19,3.84,1.11c0,0,0,0,0,0c-0.38,2.5,4.17,1.59,6.41,0.95c1.95-0.56,3.34-3.93,2.03-5.44
			c-2.96-3.4-6.3-11.6-10.11-8.91c0,0,0,0,0,0c-0.26-0.25-0.76-0.22-1.08-0.04c0,0,0,0,0,0c-0.23-1.02-0.38-2.58-1.67-2.37
			c0,0,0,0,0,0c0,0,0,0,0,0c0.4-1.18-1.17-2.02-2.1-2.93c-3.76-3.7-7.84-7.44-12.91-8.5c0.31-1.01-1.35-1.67-2.58-1.35
			c-0.63,0.17-0.82,0.75-0.79,1.36C1244.72,661.48,1245.87,662.79,1246.73,662.02z"/>
		<path class="st1" d="M623.92,782.12c0.37-0.32,0.54-1.12,0.54-1.89c0-1.12-0.37-2.18-1.09-1.61c0.11-0.2-0.49-0.66-0.63-0.46
			c0,0-0.06-0.06-0.09-0.09c0.31-0.11,0.49-0.55,0.49-1c0-0.34-0.11-0.69-0.37-0.83c0.72-1.06-0.26-2.26-1.15-2.81
			c0.11-0.14,0.17-0.32,0.17-0.52c0-0.32-0.14-0.69-0.37-0.86c0.29-0.17,0.43-0.54,0.54-0.89c0.14,0,0.23-0.23,0.23-0.43
			c0-0.17-0.06-0.34-0.17-0.34c0.06-0.34,0.29-0.63,0.34-0.97c0.8,0.26,0.63-2.18-0.14-1.81c-2.81-3.58-7.37,0.95-10.06,3.75
			c-2.44,2.52-4.07,5.67-6.25,8.43c-1.43,1.78-3.7,5.47-1,6.88c-1.38,0.29-2.95,0.43-3.01,2.55c-0.03,0.83-1.38,0.92-1.75,1.66
			c-0.17-0.11-0.37-0.14-0.54-0.14c-2.15,0-4.18,6.1-1,6.28c-0.29,0.77-1.06,1.69-0.6,2.38c-0.03-0.03-0.06-0.06-0.09-0.06
			c-0.26,0-0.63,0.69-0.31,0.75c-0.52,0.83-1.12,1.83-1.12,2.69c0,0.4,0.11,0.8,0.46,1.12c-0.52,0.34-0.57,1.43-0.11,1.83
			c-1.38,2.21-1.4,4.04-1.78,6.33c-0.92-0.31-2.18,0.77-2.26,1.72c-0.2-0.11-0.49-0.17-0.75-0.17c-0.74,0-1.55,0.37-1.35,0.89
			c-0.63,0.31-1.81,0.92-1.29,1.63c-2.03,0.97-2.78,3.67-2.78,6.11v0.14c0.03,0.95-0.23,1.66-0.78,2.41
			c-1.2,1.63-0.77,3.64,1.09,3.53c-0.37,0.37-0.75,1-0.75,1.58c0,0.29,0.11,0.57,0.4,0.77c-0.6,0.57-1.58,1.38-1.58,2.12
			c0,0.23,0.09,0.46,0.32,0.66c-0.11,0.09-0.14,0.23-0.14,0.4c0,0.2,0.06,0.46,0.06,0.69c-1.4-0.57-2.01,2.18-2.49,3.7
			c-1.26,3.84-2.64,7.65-3.98,11.46c-0.06,0.2-0.14,0.37-0.23,0.57c-0.03,0.37-0.09,0.75-0.11,1.09v0.03
			c-0.46,0.32-0.63,0.72-0.4,1.26c-0.06,0.26-0.11,0.52-0.2,0.77c-0.09,0.17-0.23,0.29-0.43,0.32c-2.01,3.04-2.61,6.79-4.79,9.77
			c-0.23,0.34,0.09,1.09,0.17,1.66c0.31,0.89,0.29,1.69,0.09,2.67c-0.43,2.06-1.95,3.58-2.32,5.59l-0.23,0.14h-0.09
			c-0.26,0-0.37,0.14-0.37,0.4l-0.11,0.14c-0.03,0.17-0.11,0.32-0.29,0.4c-0.74,2.61-2.84,5.07-0.8,7.94
			c-0.37,1.15-1.98,1.58-1.83,3.04c-0.92,2.78-1.29,5.67-1.95,8.48c-0.69,2.89-1.17,5.76-1.38,8.71c0.03,0.86,0.06,1.72,0.06,2.61
			c0.95-0.11,1.86-0.23,2.78-0.32c0.34-0.72,0.57-1.43,0.4-2.24c0.95-1.52,1.92-3.04,3.84-3.41c3.32-0.66,5.7-2.35,7.62-5.3
			c1.92-2.92,2.38-6.71,5.33-8.97c2.49-1.92,3.24-4.59,3.53-7.54c0.11-1,0.83-1.95,0.52-3.04c0.34-0.11,0.69-0.57,0.69-0.92
			c0-0.09-0.03-0.17-0.06-0.23c0.49-0.31,0.54-1.06,0.6-1.66c1.26,0.11,1.78-2.58,1.06-3.61c2.58-0.54,3.27-3.7,2.09-5.59
			c0.14-0.06,0.23-0.29,0.23-0.49c0-0.14-0.06-0.29-0.14-0.34c0.11-0.11,0.14-0.29,0.14-0.43c0,0,0,0,0.03,0
			c0.09,0,0.2-0.14,0.2-0.14c-0.06-0.14-0.09-0.46-0.23-0.43c0.69-0.75,1.15-1.95,0.72-2.84c0.52-0.17,0.95-0.66,1.15-1.17
			c0.06,0.03,0.14,0.03,0.2,0.03c0.72,0,0.92-1.98,0.29-2.38c0.09-0.14,0.03-0.37,0.11-0.52c0.03,0,0.03,0.03,0.06,0.03
			c0.23,0,0.57-0.54,0.37-0.69c0.11-0.17,0.29-0.29,0.29-0.49v-0.03c0.03,0,0.03,0,0.06,0c0.34,0,0.66-0.55,0.66-0.8
			c-0.03-2.75,1.26-4.44,3.9-5.19c0.43-0.11,1.03-0.77,0.98-1.32c1.15,0.14,1.75-1.52,2.46-2.29c2.03-2.29,3.53-5.19,2.89-8.28
			c-0.52-2.49-0.66-4.73-0.37-7.25c0.17-1.46,0.31-3.7-1.18-5.02c-1.29-1.12-1.2-2.69-0.63-3.64c0.92-1.46,1.63-3.18,0.69-4.3
			c1.15-1.06,1.38-2.58,1.38-4.13c0-1.15-0.11-2.32-0.11-3.41c0.49,0.37,1,0.54,1.55,0.54c2.03,0,4.27-2.29,5.39-4.13
			c1.17,0.75,1.95-1.38,2.84-2.32c0.17,0.23,0.83-0.26,0.66-0.49c2.81-1.69,5.02-4.24,4.44-6.91c-0.52-2.49,0.37-4.24,1.89-5.88
			C624.44,786.11,625.24,783.73,623.92,782.12z M579.67,855.53c-0.11-0.17-0.2-0.34-0.31-0.52c0.11,0.17,0.23,0.34,0.34,0.52
			C579.7,855.53,579.7,855.53,579.67,855.53z"/>
		<path class="st1" d="M561.9,1065.6c0.55-0.01,0.77-0.44,0.78-0.97c0-0.5-0.11-1.02-0.71-0.96c-0.48,0.05-0.78,0.48-0.84,1
			C561.08,1065.24,561.35,1065.61,561.9,1065.6z"/>
		<path class="st1" d="M1102.92,631.87c2.42-7.36-3.45-18.47-9.47-15.56c0,0,0,0,0,0c-1.61-5.42-11.43-5.71-14.21-1.75
			c-0.72-0.38-1.48,0.75-2.4,0.25c-1.35-0.74-3.01-0.54-4.1,0.12c-2.66,1.61-6.88,0.11-8.5,2.59c0,0,0,0,0,0c0,0,0,0,0,0
			c-1.6-1.79-4.95-0.62-6.05,1.93c-1.12,2.59-4.51,3.18-5.01,6.01c-0.89-0.35-1.82,0.5-2.24,1.25c0,0,0,0,0,0c0,0,0,0,0,0
			c-0.43-0.46-2.03-0.25-1.77,0.42c-0.86,0.14-1.4,1.01-1.21,1.81c0,0,0,0,0,0c-0.73-0.18-1.07,0.86-1.08,1.69
			c0,0-0.04,0.08-0.03,0.1c0,0,0,0,0,0s0,0,0,0c0-0.03,0.03-0.1,0.03-0.1c-0.96-0.74-2.3,0.77-3.42,1.23
			c0.56-2.41-3.89-2.32-5.79-1.53c-1.34-3.84-8.09-0.16-12.13-0.07c-2.95,0.06-6.13,4.94-3.64,6.24c0,0,0,0,0,0c0,0,0,0,0,0
			c-0.5,0.35-0.86,1.18-0.45,1.74c0,0,0,0,0,0c-2.05,1.66,4.43,4.74,5.28,2.71c2.73,1.28,5.68,3.28,8.56,2.51
			c0.81,1.74,1.87,2.27,3.56,2.85c0,0,0,0,0,0c-0.21,0.42,0.06,0.87,0.63,1.11l0,0c-0.1,0.17,0.41,0.49,0.52,0.32
			c0.18,0.11,0.33,0.26,0.53,0.31h0c-0.12,0.59,1.21,1.09,1.67,0.7c0.21,1.68,1.28,1.54,2.41,1.7c1.4,0.2,2.79,0.07,4.21,0.23
			c3.88,0.44,6.62,3.06,9.88,4.62c2.47,1.18,4.56,1.17,6.71-0.25c-0.04,0.33,0.56,0.09,0.45-0.12h0c0,0,0,0,0,0
			c6.64-0.62,12.59-4.55,19.62-3.23c1.47,0.28,4.68,0.47,5.33-1.88c1.11,0.82,3.79,1.12,4.06-0.57c0,0,0,0,0,0
			c0.83,0.26,2.21-0.94,1.58-1.85c0,0,0.02-0.06,0.03-0.08c0,0,0,0,0,0c0.38,0.15,0.99-0.58,0.79-0.93c0,0,0,0,0,0
			c2.24-0.79,2.57-3.54,3.94-5.25c0.3,0.26,0.2-0.22,0.04-0.9c0.45-0.74,1.46-1.6,0.84-2.1c0,0,0,0,0,0
			c0.17-0.08,0.19-0.3,0.26-0.48c0.21,0.11,0.54-0.5,0.34-0.62c0,0,0,0,0,0c0.1-0.35,0.13-0.74,0.05-1.1
			C1104.03,635.64,1104.19,632.32,1102.92,631.87z"/>
		<path class="st1" d="M587.47,1170.24c-0.01-0.08-0.07-0.18-0.14-0.19c-0.08-0.01-0.17,0.08-0.17,0.16c0,0.11,0.13,0.26,0.24,0.24
			C587.46,1170.43,587.48,1170.31,587.47,1170.24z"/>
		<path class="st1" d="M672.52,699.39c0,0-0.04-0.07-0.06-0.06c-0.02,0.02,0.02,0.1,0.04,0.1c0,0,0,0,0,0c0,0,0.01,0,0.01,0
			C672.51,699.43,672.52,699.41,672.52,699.39C672.51,699.4,672.52,699.39,672.52,699.39z"/>
		<path class="st1" d="M1328.32,759.81c1.28,3.2,1.96,6.58,1.4,10.16c-0.22,1.43,0.2,3.04,1.3,4.28c1.05,1.17,1.83,2.6,1.79,4.13
			c-0.14,5.06-1.4,13.09,3.39,14.19c-0.2,0.54-0.24,1.36,0.21,1.71c0,0,0,0,0,0c-1.17,0.77-1.42,2.7-0.54,3.85c0,0,0,0,0,0
			c-0.56,0.26-0.68,1.49-0.17,1.84c0,0,0,0,0,0c-2.87,3.72,0.32,9.09,2.76,12.69c2.98,4.4,1.77,14.26,7.03,13.93c0,0,0,0,0,0
			c0.67,1.52,1.91,4.75,3.56,3.35c0.69,3.41,4.6,7.57,7.55,6.18c0,0,0,0,0,0c0.44,1.31,2.15,1.71,3.46,1.87v0
			c-0.23,0.56,0.87,0.85,1.45,0.67c2.28-0.72,3.95,0.93,6.11,1.21l0,0c0,0,0,0,0,0c-0.59,0.86-0.05,2.44,1.62,2.21c0,0,0,0,0,0
			c-0.15,0.71,1.73,0.94,1.87,0.23c0,0,0,0,0,0c0,0,0,0,0,0c0.14,0.13,0.28,0.25,0.42,0.38c0,0,0,0,0,0
			c-0.33,0.16,0.47,0.91,0.61,0.57c0,0,0,0,0,0c2.27,2.53,4.36,5.15,6.79,7.55c3.6,3.56,7.18,2.95,9.05-1.71
			c1.04-2.58,0.4-5.27,1.1-7.81c0.88-3.19,0.92-7.03-2.09-8.32c0,0,0,0,0,0c0.46-0.75-0.08-2.99-0.98-2.44
			c-0.37-0.97-0.69-3.06-1.75-2.59c0,0,0,0,0,0c-0.25-1.61-1.24-3.11-2.39-4.27c0.5-0.32,0.04-2.01-0.61-1.61
			c-0.05-0.22-0.08-0.53-0.3-0.6l-0.01,0c0,0,0.01,0,0.01,0c0.1-0.25-0.05-0.85-0.31-0.76c-0.04-0.13-0.16-0.23-0.3-0.18
			c0.01,0-0.01-0.04-0.01-0.04h0c1.64-1.19-0.74-4.14-1.39-5.9c-2.89-7.84-6.27-15.51-11.38-22.25c-0.92-1.21-2.35-2.06-2.77-3.6
			c-0.84-3.08-2.99-5.53-5.95-5c0,0,0,0,0,0c-0.33-3.21-1.35-5.45-4.69-6.31c0,0,0,0,0,0c0.11-3-1.59-6.01-3.33-8.31
			c-2.57-3.39-3.02-8.8-6.81-10.63c0,0,0,0,0,0s0,0,0,0c1.52-1.9-1.84-4.85-3.82-4.6c0,0,0,0,0,0c-0.33-1.94-0.61-5.11-3.31-4.79h0
			c0,0,0,0,0,0c0.06-1.26-2.81-1.92-3.53-0.9c-0.12-0.17-0.37-0.26-0.53-0.13c0,0,0,0,0,0c-0.59-0.87-3.66-0.04-2.82,1.14
			c0,0-0.02,0.03-0.03,0.04c0,0,0,0,0,0c0,0,0,0,0,0c-0.22-0.19-0.58,0.45-0.23,0.49c0,0,0,0,0,0c0,0,0,0,0,0
			c-0.22,0.33-0.27,0.75-0.42,1.12c0,0,0,0,0,0c-0.21-0.1-0.51,0.54-0.3,0.64C1328.19,754.14,1327.11,756.78,1328.32,759.81z"/>
	</g>
	<path class="st1" d="M1222.97,792.41c0,3.05-0.76,4.57-2.29,4.57c-18.29,0-35.82,8.13-52.59,24.39
		c-16.77,16.27-30.23,38.11-40.39,65.54L986.71,1263.4c-0.51,2.02-3.31,3.05-8.38,3.05c-5.09,0-7.88-1.02-8.38-3.05L775.6,851.1
		c-9.14-18.29-18.29-31.88-27.44-40.77c-9.14-8.88-19.32-13.34-30.49-13.34c-1.52,0-2.29-1.52-2.29-4.57c0-3.05,0.76-4.57,2.29-4.57
		c7.62,0,12.96,0.26,16,0.76c10.16,1.02,23.36,1.52,39.63,1.52c43.69,0,80.79-0.5,111.27-1.52c8.12-0.5,18.29-0.76,30.49-0.76
		c1.52,0,2.29,1.52,2.29,4.57c0,3.05-0.76,4.57-2.29,4.57c-15.24,0-27.06,3.18-35.44,9.53c-8.38,6.36-12.58,15.37-12.58,27.05
		c0,8.65,2.79,19.05,8.38,31.25l131.85,281.22l99.08-261.41c5.07-14.22,7.62-26.41,7.62-36.58c0-15.74-4.7-28.2-14.1-37.34
		c-9.41-9.15-22.99-13.72-40.77-13.72c-1.52,0-2.29-1.52-2.29-4.57c0-3.05,0.76-4.57,2.29-4.57l37.34,0.76
		c21.34,1.02,40.39,1.52,57.16,1.52c9.65,0,21.59-0.5,35.82-1.52l31.25-0.76C1222.2,787.84,1222.97,789.36,1222.97,792.41z"/>
</g>
</svg>
